<svg width="25" height="25" viewBox="0 0 25 25" fill="none" xmlns="http://www.w3.org/2000/svg">
<path opacity="0.4" d="M9.37516 2.0835C6.646 2.0835 4.42725 4.30225 4.42725 7.03141C4.42725 9.7085 6.521 11.8752 9.25016 11.9689C9.3335 11.9585 9.41683 11.9585 9.47933 11.9689C9.50016 11.9689 9.51058 11.9689 9.53141 11.9689C9.54183 11.9689 9.54183 11.9689 9.55225 11.9689C12.2189 11.8752 14.3127 9.7085 14.3231 7.03141C14.3231 4.30225 12.1043 2.0835 9.37516 2.0835Z" fill="#637381"/>
<path d="M14.6674 14.7393C11.7612 12.8018 7.02165 12.8018 4.09456 14.7393C2.77165 15.6247 2.04248 16.8226 2.04248 18.1038C2.04248 19.3851 2.77165 20.5726 4.08415 21.4476C5.54248 22.4268 7.45915 22.9163 9.37581 22.9163C11.2924 22.9163 13.2091 22.4268 14.6674 21.4476C15.9799 20.5622 16.7091 19.3747 16.7091 18.083C16.6987 16.8018 15.9799 15.6143 14.6674 14.7393Z" fill="#637381"/>
<path opacity="0.4" d="M20.8223 7.64586C20.9889 9.66669 19.5514 11.4375 17.5618 11.6771C17.5514 11.6771 17.5514 11.6771 17.541 11.6771H17.5098C17.4473 11.6771 17.3848 11.6771 17.3327 11.6979C16.3223 11.75 15.3952 11.4271 14.6973 10.8334C15.7702 9.87502 16.3848 8.43752 16.2598 6.87502C16.1868 6.03127 15.8952 5.26044 15.4577 4.60419C15.8535 4.40627 16.3118 4.28127 16.7806 4.23961C18.8223 4.06252 20.6452 5.58336 20.8223 7.64586Z" fill="#637381"/>
<path d="M22.9066 17.2813C22.8232 18.2918 22.1774 19.1668 21.0941 19.7605C20.0524 20.3334 18.7399 20.6043 17.4378 20.573C18.1878 19.8959 18.6253 19.0522 18.7087 18.1563C18.8128 16.8647 18.1982 15.6251 16.9691 14.6355C16.2712 14.0834 15.4587 13.6459 14.5732 13.323C16.8753 12.6563 19.7712 13.1043 21.5524 14.5418C22.5107 15.3126 23.0003 16.2813 22.9066 17.2813Z" fill="#637381"/>
</svg>
