<svg width="25" height="25" viewBox="0 0 25 25" fill="none" xmlns="http://www.w3.org/2000/svg">
<path opacity="0.5" fill-rule="evenodd" clip-rule="evenodd" d="M2.0835 16.8162V5.20599C2.0835 4.06205 3.00673 3.13278 4.1485 3.20295C5.16555 3.26546 6.36838 3.38901 7.29183 3.6327C8.38476 3.92109 9.68361 4.53536 10.7109 5.07854C11.2675 5.37289 11.8856 5.51029 12.5002 5.49411V21.3272C11.9162 21.3272 11.3322 21.1866 10.8047 20.9054C9.76363 20.3505 8.41834 19.7069 7.29183 19.4097C6.37859 19.1687 5.19212 19.0452 4.18231 18.982C3.0273 18.9098 2.0835 17.9735 2.0835 16.8162Z" fill="#637381"/>
<path d="M22.9167 16.8165V5.13903C22.9167 4.0219 22.0352 3.10488 20.9188 3.14377C19.7431 3.18472 18.278 3.30656 17.1875 3.63304C16.2421 3.91608 15.1409 4.48381 14.2435 5.00315C13.707 5.3137 13.1052 5.47853 12.5 5.49446V21.3276C13.084 21.3276 13.6679 21.1869 14.1954 20.9058C15.2366 20.3508 16.5818 19.7073 17.7083 19.4101C18.6216 19.169 19.808 19.0456 20.8178 18.9823C21.9729 18.9102 22.9167 17.9738 22.9167 16.8165Z" fill="#637381"/>
</svg>
