<svg width="25" height="25" viewBox="0 0 25 25" fill="none" xmlns="http://www.w3.org/2000/svg">
<path d="M14.8097 3.64547C13.3295 2.95151 11.6707 2.95151 10.1905 3.64547L3.22058 6.91311C2.09975 7.43859 1.80753 8.92033 2.34391 9.94444V15.1042C2.34391 15.5356 2.69369 15.8854 3.12516 15.8854C3.55663 15.8854 3.90641 15.5356 3.90641 15.1042V11.1167L10.1906 14.0628C11.6708 14.7568 13.3296 14.7568 14.8098 14.0628L21.7797 10.7952C23.2959 10.0844 23.2959 7.62395 21.7797 6.91317L14.8097 3.64547Z" fill="#637381"/>
<path opacity="0.5" d="M5.2085 11.7271L10.1906 14.0627C11.6708 14.7566 13.3296 14.7566 14.8099 14.0627L19.7918 11.7271V17.3178C19.7918 18.3679 19.2674 19.3509 18.3488 19.8597C16.8192 20.7067 14.371 21.8747 12.5002 21.8747C10.6293 21.8747 8.1811 20.7067 6.65155 19.8597C5.73298 19.3509 5.2085 18.3679 5.2085 17.3178V11.7271Z" fill="#637381"/>
</svg>
