<svg width="25" height="25" viewBox="0 0 25 25" fill="none" xmlns="http://www.w3.org/2000/svg">
<path opacity="0.4" d="M18.7293 11.2396V15.4062C18.7293 15.6771 18.7189 15.9375 18.6877 16.1875C18.4481 19 16.7918 20.3958 13.7397 20.3958H13.3231C13.0627 20.3958 12.8127 20.5208 12.6564 20.7292L11.4064 22.3958C10.8543 23.1354 9.9585 23.1354 9.40641 22.3958L8.1564 20.7292C8.02099 20.5521 7.71891 20.3958 7.48975 20.3958H7.07309C3.75017 20.3958 2.0835 19.5729 2.0835 15.4062V11.2396C2.0835 8.18751 3.48976 6.53126 6.29184 6.29168C6.54184 6.26043 6.80226 6.25 7.07309 6.25H13.7397C17.0627 6.25 18.7293 7.91668 18.7293 11.2396Z" fill="#637381"/>
<path d="M10.4064 14.5833C9.82308 14.5833 9.36475 14.1146 9.36475 13.5417C9.36475 12.9687 9.8335 12.5 10.4064 12.5C10.9793 12.5 11.448 12.9687 11.448 13.5417C11.448 14.1146 10.9897 14.5833 10.4064 14.5833Z" fill="#637381"/>
<path d="M14.0524 14.5833C13.4691 14.5833 13.0107 14.1146 13.0107 13.5417C13.0107 12.9687 13.4795 12.5 14.0524 12.5C14.6253 12.5 15.0941 12.9687 15.0941 13.5417C15.0941 14.1146 14.6253 14.5833 14.0524 14.5833Z" fill="#637381"/>
<path d="M6.77067 14.5833C6.18734 14.5833 5.729 14.1146 5.729 13.5417C5.729 12.9687 6.19775 12.5 6.77067 12.5C7.34359 12.5 7.81234 12.9687 7.81234 13.5417C7.81234 14.1146 7.34359 14.5833 6.77067 14.5833Z" fill="#637381"/>
<path d="M22.8947 7.07285V11.2395C22.8947 14.302 21.4885 15.9478 18.6864 16.1874C18.7177 15.9374 18.7281 15.677 18.7281 15.4062V11.2395C18.7281 7.9166 17.0614 6.24992 13.7385 6.24992H7.07178C6.80094 6.24992 6.54053 6.26035 6.29053 6.2916C6.53011 3.48951 8.18636 2.08325 11.2385 2.08325H17.9052C21.2281 2.08325 22.8947 3.74993 22.8947 7.07285Z" fill="#637381"/>
</svg>
