<svg width="25" height="25" viewBox="0 0 25 25" fill="none" xmlns="http://www.w3.org/2000/svg">
<g clip-path="url(#clip0_238_81)">
<path d="M24.133 12.1406C23.0643 9.9507 21.4137 8.09699 19.362 6.78242C17.3102 5.46786 14.9363 4.7431 12.5002 4.6875C10.064 4.7431 7.69014 5.46786 5.63837 6.78242C3.58659 8.09699 1.93603 9.9507 0.867349 12.1406C0.809815 12.2517 0.779785 12.3749 0.779785 12.5C0.779785 12.6251 0.809815 12.7483 0.867349 12.8594C1.93603 15.0493 3.58659 16.903 5.63837 18.2176C7.69014 19.5321 10.064 20.2569 12.5002 20.3125C14.9363 20.2569 17.3102 19.5321 19.362 18.2176C21.4137 16.903 23.0643 15.0493 24.133 12.8594C24.1905 12.7483 24.2205 12.6251 24.2205 12.5C24.2205 12.3749 24.1905 12.2517 24.133 12.1406Z" fill="#637381" fill-opacity="0.5"/>
<path d="M12.5 16.4062C14.6574 16.4062 16.4062 14.6574 16.4062 12.5C16.4062 10.3426 14.6574 8.59375 12.5 8.59375C10.3426 8.59375 8.59375 10.3426 8.59375 12.5C8.59375 14.6574 10.3426 16.4062 12.5 16.4062Z" fill="#637381"/>
<path d="M12.5 3.90625C12.2928 3.90625 12.0941 3.82394 11.9476 3.67743C11.8011 3.53091 11.7188 3.3322 11.7188 3.125V1.5625C11.7188 1.3553 11.8011 1.15659 11.9476 1.01007C12.0941 0.86356 12.2928 0.78125 12.5 0.78125C12.7072 0.78125 12.9059 0.86356 13.0524 1.01007C13.1989 1.15659 13.2812 1.3553 13.2812 1.5625V3.125C13.2812 3.3322 13.1989 3.53091 13.0524 3.67743C12.9059 3.82394 12.7072 3.90625 12.5 3.90625Z" fill="#637381"/>
<path d="M17.1876 4.68754C17.065 4.689 16.9441 4.65944 16.836 4.6016C16.652 4.50794 16.5126 4.34525 16.4482 4.14908C16.3838 3.95292 16.3996 3.73923 16.4923 3.55472L17.2735 1.99222C17.3752 1.8232 17.5371 1.69891 17.7267 1.6443C17.9162 1.58969 18.1194 1.60881 18.2955 1.69782C18.4715 1.78683 18.6073 1.93914 18.6757 2.12417C18.7441 2.3092 18.74 2.51325 18.6642 2.69535L17.8829 4.25785C17.818 4.38669 17.7187 4.49504 17.5959 4.57088C17.4732 4.64672 17.3319 4.6871 17.1876 4.68754Z" fill="#637381"/>
<path d="M7.81253 4.68746C7.66825 4.68703 7.52692 4.64665 7.40419 4.57081C7.28147 4.49496 7.18213 4.38662 7.11721 4.25778L6.33596 2.69528C6.28057 2.60322 6.24476 2.50074 6.23077 2.39422C6.21678 2.2877 6.22491 2.17944 6.25465 2.07621C6.28439 1.97298 6.33511 1.87698 6.40362 1.79424C6.47214 1.71149 6.55698 1.64376 6.65286 1.59528C6.74873 1.54681 6.85357 1.51863 6.96083 1.5125C7.06809 1.50638 7.17545 1.52244 7.27622 1.55968C7.37699 1.59693 7.469 1.65456 7.54649 1.72897C7.62398 1.80338 7.68529 1.89297 7.72659 1.99215L8.50784 3.55465C8.6005 3.73916 8.61636 3.95284 8.55195 4.14901C8.48754 4.34518 8.34809 4.50787 8.16409 4.60153C8.05603 4.65937 7.93509 4.68893 7.81253 4.68746Z" fill="#637381"/>
<path d="M12.5 24.2188C12.2928 24.2188 12.0941 24.1364 11.9476 23.9899C11.8011 23.8434 11.7188 23.6447 11.7188 23.4375V21.875C11.7188 21.6678 11.8011 21.4691 11.9476 21.3226C12.0941 21.1761 12.2928 21.0938 12.5 21.0938C12.7072 21.0938 12.9059 21.1761 13.0524 21.3226C13.1989 21.4691 13.2812 21.6678 13.2812 21.875V23.4375C13.2812 23.6447 13.1989 23.8434 13.0524 23.9899C12.9059 24.1364 12.7072 24.2188 12.5 24.2188Z" fill="#637381"/>
<path d="M17.9687 23.4375C17.8245 23.4371 17.6831 23.3967 17.5604 23.3209C17.4377 23.245 17.3383 23.1367 17.2734 23.0079L16.4922 21.4454C16.4163 21.2632 16.4122 21.0592 16.4806 20.8742C16.549 20.6891 16.6848 20.5368 16.8609 20.4478C17.0369 20.3588 17.2401 20.3397 17.4296 20.3943C17.6192 20.4489 17.7811 20.5732 17.8828 20.7422L18.664 22.3047C18.7567 22.4892 18.7726 22.7029 18.7081 22.8991C18.6437 23.0952 18.5043 23.2579 18.3203 23.3516C18.2122 23.4094 18.0913 23.439 17.9687 23.4375Z" fill="#637381"/>
<path d="M7.03135 23.4375C6.90879 23.4389 6.78785 23.4094 6.67978 23.3515C6.49578 23.2579 6.35633 23.0952 6.29192 22.899C6.22751 22.7028 6.24337 22.4892 6.33603 22.3047L7.11728 20.7422C7.15858 20.643 7.21989 20.5534 7.29738 20.479C7.37487 20.4046 7.46688 20.3469 7.56765 20.3097C7.66842 20.2724 7.77579 20.2564 7.88304 20.2625C7.9903 20.2686 8.09514 20.2968 8.19102 20.3453C8.28689 20.3938 8.37174 20.4615 8.44025 20.5442C8.50877 20.627 8.55948 20.723 8.58922 20.8262C8.61896 20.9294 8.62709 21.0377 8.6131 21.1442C8.59911 21.2507 8.5633 21.3532 8.50791 21.4453L7.72666 23.0078C7.66174 23.1366 7.56241 23.245 7.43968 23.3208C7.31695 23.3966 7.17562 23.437 7.03135 23.4375Z" fill="#637381"/>
</g>
<defs>
<clipPath id="clip0_238_81">
<rect width="25" height="25" fill="white"/>
</clipPath>
</defs>
</svg>
