<svg width="25" height="25" viewBox="0 0 25 25" fill="none" xmlns="http://www.w3.org/2000/svg">
<path d="M15.8872 11.1344C14.8595 9.90466 14.3456 9.2898 13.7548 9.38451C13.1642 9.47921 12.8879 10.2208 12.3352 11.7039L12.1921 12.0875C12.0351 12.509 11.9565 12.7197 11.8037 12.8749C11.651 13.0302 11.4412 13.1123 11.0216 13.2767L10.6397 13.4262C9.16336 14.0045 8.42519 14.2935 8.341 14.8845C8.25682 15.4754 8.88237 15.9769 10.1335 16.9796L10.4571 17.2391C10.8127 17.5241 10.9905 17.6666 11.0933 17.8616C11.1962 18.0566 11.2126 18.2821 11.2454 18.733L11.2752 19.1436C11.3905 20.7307 11.4482 21.5243 11.9868 21.7948C12.5256 22.0653 13.1885 21.6336 14.5144 20.7703L14.8575 20.547C15.2342 20.3017 15.4227 20.179 15.639 20.1443C15.8555 20.1096 16.0754 20.1668 16.5151 20.2812L16.9155 20.3854C18.4631 20.788 19.2369 20.9894 19.654 20.5656C20.0711 20.1419 19.8554 19.3736 19.4237 17.8373L19.312 17.4398C19.1893 17.0032 19.1281 16.7849 19.1589 16.5684C19.1897 16.352 19.3092 16.1619 19.5483 15.7816L19.7659 15.4354C20.607 14.0971 21.0277 13.428 20.7467 12.8956C20.4658 12.3632 19.6695 12.3201 18.0768 12.234L17.6647 12.2116C17.2121 12.1871 16.9859 12.1749 16.7885 12.0757C16.5912 11.9767 16.4452 11.802 16.1531 11.4525L15.8872 11.1344Z" fill="#637381"/>
<path opacity="0.5" d="M10.7615 4.42933C12.1318 2.78971 12.817 1.9699 13.6046 2.09617C14.3922 2.22244 14.7608 3.21117 15.4976 5.18862L15.6883 5.7002C15.8978 6.26214 16.0024 6.5431 16.2062 6.75007C16.4099 6.95704 16.6896 7.06658 17.249 7.28567L17.7582 7.48513C19.7267 8.2561 20.7109 8.64158 20.8232 9.4295C20.9355 10.2174 20.1013 10.8859 18.4332 12.223L18.0016 12.5689C17.5276 12.9489 17.2906 13.1388 17.1534 13.3989C17.0162 13.6589 16.9943 13.9596 16.9507 14.5609L16.9109 15.1084C16.7571 17.2244 16.6803 18.2826 15.962 18.6432C15.2438 19.0039 14.3598 18.4284 12.5919 17.2772L12.1345 16.9794C11.6321 16.6524 11.381 16.4888 11.0924 16.4426C10.8039 16.3963 10.5108 16.4726 9.92435 16.6252L9.3905 16.764C7.32702 17.3009 6.29528 17.5693 5.73913 17.0043C5.18297 16.4393 5.47073 15.4151 6.04624 13.3665L6.19514 12.8366C6.35868 12.2544 6.44045 11.9634 6.39932 11.6747C6.35821 11.3862 6.19886 11.1327 5.88015 10.6256L5.58998 10.164C4.46843 8.37967 3.90766 7.48753 4.28219 6.77765C4.65671 6.06778 5.7185 6.01031 7.8421 5.89538L8.39149 5.86564C8.99495 5.83299 9.29668 5.81665 9.55979 5.68453C9.8229 5.5524 10.0176 5.31943 10.407 4.85352L10.7615 4.42933Z" fill="#637381"/>
</svg>
