<svg width="25" height="25" viewBox="0 0 25 25" fill="none" xmlns="http://www.w3.org/2000/svg">
<path opacity="0.8" fill-rule="evenodd" clip-rule="evenodd" d="M22.4288 12.0684L21.6147 11.4171V22.1354H22.9168C23.3483 22.1354 23.6981 22.4852 23.6981 22.9166C23.6981 23.3482 23.3483 23.6979 22.9168 23.6979H2.08353C1.65205 23.6979 1.30228 23.3482 1.30228 22.9166C1.30228 22.4852 1.65205 22.1354 2.08353 22.1354H3.38561V11.4171L2.57157 12.0684C2.23464 12.338 1.743 12.2833 1.47347 11.9464C1.20393 11.6094 1.25856 11.1178 1.59548 10.8483L10.06 4.07669C11.4866 2.93538 13.5138 2.93538 14.9404 4.07669L23.4049 10.8483C23.7418 11.1178 23.7964 11.6094 23.5269 11.9464C23.2573 12.2833 22.7658 12.338 22.4288 12.0684ZM12.5002 7.03125C10.9181 7.03125 9.63561 8.31377 9.63561 9.89583C9.63561 11.4779 10.9181 12.7604 12.5002 12.7604C14.0822 12.7604 15.3647 11.4779 15.3647 9.89583C15.3647 8.31377 14.0822 7.03125 12.5002 7.03125ZM14.3188 13.8662C13.8409 13.802 13.2442 13.802 12.5516 13.802H12.4488C11.7562 13.802 11.1594 13.802 10.6816 13.8662C10.1695 13.9351 9.67858 14.0904 9.28041 14.4886C8.88224 14.8867 8.72696 15.3777 8.65811 15.8897C8.59387 16.3676 8.5939 16.9643 8.59394 17.6569V22.1354H10.1564H14.8439H16.4064V17.6569V17.5282C16.4062 16.8902 16.4025 16.3378 16.3422 15.8897C16.2734 15.3777 16.1182 14.8867 15.72 14.4886C15.3218 14.0904 14.8309 13.9351 14.3188 13.8662Z" fill="#637381"/>
<g opacity="0.5">
<path fill-rule="evenodd" clip-rule="evenodd" d="M11.1978 9.89583C11.1978 9.17671 11.7807 8.59375 12.4998 8.59375C13.219 8.59375 13.8019 9.17671 13.8019 9.89583C13.8019 10.615 13.219 11.1979 12.4998 11.1979C11.7807 11.1979 11.1978 10.615 11.1978 9.89583Z" fill="#637381"/>
<path fill-rule="evenodd" clip-rule="evenodd" d="M11.1978 9.89583C11.1978 9.17671 11.7807 8.59375 12.4998 8.59375C13.219 8.59375 13.8019 9.17671 13.8019 9.89583C13.8019 10.615 13.219 11.1979 12.4998 11.1979C11.7807 11.1979 11.1978 10.615 11.1978 9.89583Z" fill="#637381"/>
</g>
<path opacity="0.5" d="M12.5515 13.8022C13.244 13.8022 13.8407 13.8021 14.3185 13.8664C14.8307 13.9353 15.3216 14.0906 15.7198 14.4887C16.1179 14.8869 16.2732 15.3778 16.3421 15.89C16.4023 16.3379 16.406 16.8904 16.4063 17.5283V22.1356H8.59375V17.657C8.59372 16.9645 8.59368 16.3678 8.65793 15.89C8.72678 15.3778 8.88205 14.8869 9.28022 14.4887C9.6784 14.0906 10.1693 13.9353 10.6815 13.8664C11.1593 13.8021 11.756 13.8022 12.4485 13.8022H12.5515Z" fill="#637381"/>
<path opacity="0.5" d="M16.6668 3.125H19.271C19.5586 3.125 19.7918 3.35819 19.7918 3.64583V7.95786L16.146 5.0412V3.64583C16.146 3.35819 16.3792 3.125 16.6668 3.125Z" fill="#637381"/>
</svg>
