<svg width="25" height="25" viewBox="0 0 25 25" fill="none" xmlns="http://www.w3.org/2000/svg">
<path opacity="0.4" d="M21.4781 8.80216C20.3844 3.98966 16.1865 1.823 12.499 1.823C12.499 1.823 12.499 1.823 12.4886 1.823C8.8115 1.823 4.60317 3.97925 3.50942 8.79175C2.29067 14.1667 5.58233 18.7188 8.5615 21.5834C9.66567 22.6459 11.0823 23.1772 12.499 23.1772C13.9156 23.1772 15.3323 22.6459 16.4261 21.5834C19.4052 18.7188 22.6969 14.1772 21.4781 8.80216Z" fill="#637381"/>
<path d="M12.4995 14.021C14.3117 14.021 15.7808 12.552 15.7808 10.7398C15.7808 8.92756 14.3117 7.4585 12.4995 7.4585C10.6873 7.4585 9.21826 8.92756 9.21826 10.7398C9.21826 12.552 10.6873 14.021 12.4995 14.021Z" fill="#637381"/>
</svg>
