<svg width="25" height="25" viewBox="0 0 25 25" fill="none" xmlns="http://www.w3.org/2000/svg">
<path opacity="0.6" d="M15.6252 2.0835H14.5835C11.6372 2.0835 10.1641 2.0835 9.24879 2.99879C8.3335 3.91408 8.3335 5.38721 8.3335 8.3335V16.6668C8.3335 19.6131 8.3335 21.0862 9.24879 22.0015C10.1641 22.9168 11.6372 22.9168 14.5835 22.9168H15.6252C18.5714 22.9168 20.0445 22.9168 20.9598 22.0015C21.8752 21.0862 21.8752 19.6131 21.8752 16.6668V8.3335C21.8752 5.38721 21.8752 3.91408 20.9598 2.99879C20.0445 2.0835 18.5714 2.0835 15.6252 2.0835Z" fill="#637381"/>
<path opacity="0.4" d="M8.33333 8.33333C8.33333 6.73176 8.33333 5.56549 8.48035 4.6875H8.33333C5.8781 4.6875 4.65049 4.6875 3.88774 5.45024C3.125 6.21299 3.125 7.4406 3.125 9.89583V15.1042C3.125 17.5594 3.125 18.787 3.88774 19.5498C4.65049 20.3125 5.8781 20.3125 8.33333 20.3125H8.48035C8.33333 19.4345 8.33333 18.2682 8.33333 16.6667V13.2812V11.7187V8.33333Z" fill="#637381"/>
<path fill-rule="evenodd" clip-rule="evenodd" d="M4.65607 11.9474C4.35097 12.2525 4.35097 12.7471 4.65607 13.0522L6.7394 15.1356C7.04449 15.4407 7.53916 15.4407 7.84425 15.1356C8.14935 14.8305 8.14935 14.3359 7.84425 14.0308L7.0946 13.2811H14.5835C15.015 13.2811 15.3647 12.9313 15.3647 12.4998C15.3647 12.0684 15.015 11.7186 14.5835 11.7186H7.0946L7.84425 10.9689C8.14935 10.6638 8.14935 10.1692 7.84425 9.86407C7.53916 9.55898 7.04449 9.55898 6.7394 9.86407L4.65607 11.9474Z" fill="#637381"/>
</svg>
