<svg width="25" height="25" viewBox="0 0 25 25" fill="none" xmlns="http://www.w3.org/2000/svg">
<path opacity="0.4" d="M2.0835 13.5106V7.28141C2.0835 4.40641 4.41683 2.0835 7.29183 2.0835H17.7085C20.5835 2.0835 22.9168 4.40641 22.9168 7.28141V14.5522C22.9168 17.4168 20.5835 19.7397 17.7085 19.7397H16.146C15.8231 19.7397 15.5106 19.896 15.3127 20.1564L13.7502 22.2293C13.0627 23.146 11.9377 23.146 11.2502 22.2293L9.68766 20.1564C9.521 19.9272 9.146 19.7397 8.85433 19.7397H7.29183C4.41683 19.7397 2.0835 17.4168 2.0835 14.5522V13.5106Z" fill="#637381"/>
<path d="M12.5002 12.4998C11.9168 12.4998 11.4585 12.0311 11.4585 11.4582C11.4585 10.8853 11.9272 10.4165 12.5002 10.4165C13.0731 10.4165 13.5418 10.8853 13.5418 11.4582C13.5418 12.0311 13.0835 12.4998 12.5002 12.4998Z" fill="#637381"/>
<path d="M16.6667 12.4998C16.0833 12.4998 15.625 12.0311 15.625 11.4582C15.625 10.8853 16.0937 10.4165 16.6667 10.4165C17.2396 10.4165 17.7083 10.8853 17.7083 11.4582C17.7083 12.0311 17.25 12.4998 16.6667 12.4998Z" fill="#637381"/>
<path d="M8.33317 12.4998C7.74984 12.4998 7.2915 12.0311 7.2915 11.4582C7.2915 10.8853 7.76025 10.4165 8.33317 10.4165C8.90609 10.4165 9.37484 10.8853 9.37484 11.4582C9.37484 12.0311 8.9165 12.4998 8.33317 12.4998Z" fill="#637381"/>
</svg>
