<svg width="25" height="25" viewBox="0 0 25 25" fill="none" xmlns="http://www.w3.org/2000/svg">
<path opacity="0.5" fill-rule="evenodd" clip-rule="evenodd" d="M22.9168 12.5004C22.9168 18.2534 18.2531 22.9171 12.5002 22.9171C11.2875 22.9171 10.1231 22.7098 9.04065 22.3289C8.58493 21.2263 8.3335 20.0177 8.3335 18.7504C8.3335 16.4367 9.17169 14.3187 10.561 12.6836C11.7814 14.4602 13.8277 15.6254 16.146 15.6254C18.6059 15.6254 20.7594 14.3136 21.9452 12.3513C22.1944 11.9388 22.9168 12.0185 22.9168 12.5004Z" fill="#637381"/>
<path d="M2.0835 12.4999C2.0835 17.0401 4.9882 20.9019 9.04065 22.3284C8.58493 21.2258 8.3335 20.0172 8.3335 18.7499C8.3335 16.4362 9.17169 14.3181 10.561 12.683C9.81294 11.594 9.37516 10.2751 9.37516 8.85409C9.37516 6.39414 10.687 4.2406 12.6493 3.05488C13.0618 2.80562 12.9821 2.08325 12.5002 2.08325C6.74719 2.08325 2.0835 6.74695 2.0835 12.4999Z" fill="#637381"/>
</svg>
