<svg width="25" height="25" viewBox="0 0 25 25" fill="none" xmlns="http://www.w3.org/2000/svg">
<path opacity="0.5" d="M4.34539 3.30388C3.125 4.52428 3.125 6.48845 3.125 10.4168V14.5835C3.125 18.5118 3.125 20.4761 4.34539 21.6964C5.56578 22.9168 7.52996 22.9168 11.4583 22.9168H13.5417C17.47 22.9168 19.4343 22.9168 20.6546 21.6964C21.875 20.4761 21.875 18.5118 21.875 14.5835V10.4168C21.875 6.48845 21.875 4.52428 20.6546 3.30388C19.4343 2.0835 17.47 2.0835 13.5417 2.0835H11.4583C7.52996 2.0835 5.56578 2.0835 4.34539 3.30388Z" fill="#637381"/>
<path d="M6.25 12.5C6.25 11.0269 6.25 10.2903 6.70765 9.83265C7.16529 9.375 7.90186 9.375 9.375 9.375H15.625C17.0981 9.375 17.8347 9.375 18.2924 9.83265C18.75 10.2903 18.75 11.0269 18.75 12.5V16.6667C18.75 18.1398 18.75 18.8764 18.2924 19.3341C17.8347 19.7917 17.0981 19.7917 15.625 19.7917H9.375C7.90186 19.7917 7.16529 19.7917 6.70765 19.3341C6.25 18.8764 6.25 18.1398 6.25 16.6667V12.5Z" fill="#637381"/>
<path d="M7.2915 5.46875C6.86004 5.46875 6.51025 5.81853 6.51025 6.25C6.51025 6.68147 6.86004 7.03125 7.2915 7.03125H12.4998C12.9313 7.03125 13.2811 6.68147 13.2811 6.25C13.2811 5.81853 12.9313 5.46875 12.4998 5.46875H7.2915Z" fill="#637381"/>
</svg>
