<svg width="25" height="25" viewBox="0 0 25 25" fill="none" xmlns="http://www.w3.org/2000/svg">
<path d="M8.77338 21.4774C10.6021 22.4372 11.5165 22.917 12.5002 22.917V12.5003L2.7481 7.36768C2.73374 7.39076 2.71964 7.41405 2.70579 7.43758C2.0835 8.49435 2.0835 9.80937 2.0835 12.4394V12.5613C2.0835 15.1913 2.0835 16.5064 2.70579 17.5631C3.32807 18.6199 4.44874 19.208 6.69005 20.3842L8.77338 21.4774Z" fill="#637381"/>
<path opacity="0.7" d="M18.3097 4.61633L16.2264 3.52305C14.3977 2.56335 13.4833 2.0835 12.4996 2.0835C11.516 2.0835 10.6016 2.56335 8.77284 3.52305L6.68951 4.61633C4.49809 5.76633 3.37799 6.35414 2.74756 7.3675L12.4996 12.5002L22.2517 7.3675C21.6212 6.35414 20.5011 5.76633 18.3097 4.61633Z" fill="#637381"/>
<path opacity="0.5" d="M22.2944 7.43758C22.2805 7.41405 22.2665 7.39076 22.2521 7.36768L12.5 12.5003V22.917C13.4836 22.917 14.398 22.4372 16.2268 21.4774L18.3101 20.3842C20.5515 19.208 21.6721 18.6199 22.2944 17.5631C22.9167 16.5064 22.9167 15.1913 22.9167 12.5613V12.4394C22.9167 9.80937 22.9167 8.49435 22.2944 7.43758Z" fill="#637381"/>
<path d="M6.58673 4.6705C6.62093 4.65254 6.6554 4.63446 6.69014 4.61623L8.2459 3.7998L17.7259 9.01379L21.9172 6.91811C22.0607 7.08053 22.1853 7.25168 22.2946 7.43729C22.4504 7.7019 22.5672 7.98269 22.6548 8.29626L18.4898 10.3787V13.5417C18.4898 13.9732 18.14 14.323 17.7086 14.323C17.2771 14.323 16.9273 13.9732 16.9273 13.5417V11.16L13.2815 12.9829V22.8167C13.0139 22.8834 12.7595 22.9167 12.5002 22.9167C12.2411 22.9167 11.9866 22.8834 11.719 22.8167V12.9829L2.3457 8.29626C2.43327 7.98269 2.55006 7.7019 2.70587 7.43729C2.81517 7.25168 2.93984 7.08053 3.08327 6.91811L12.5002 11.6266L16.0275 9.86295L6.58673 4.6705Z" fill="#637381"/>
</svg>
