<svg width="25" height="25" viewBox="0 0 25 25" fill="none" xmlns="http://www.w3.org/2000/svg">
<path opacity="0.5" d="M7.5469 2.0835H17.4531C18.6603 2.0835 19.2639 2.0835 19.7506 2.25288C20.6737 2.57408 21.3984 3.32015 21.7104 4.27043C21.875 4.77157 21.875 5.39292 21.875 6.63564V21.2233C21.875 22.1172 20.849 22.5916 20.1999 21.9977C19.8185 21.6487 19.244 21.6487 18.8626 21.9977L18.3594 22.4582C17.691 23.0697 16.684 23.0697 16.0156 22.4582C15.3473 21.8466 14.3402 21.8466 13.6719 22.4582C13.0035 23.0697 11.9965 23.0697 11.3281 22.4582C10.6598 21.8466 9.6527 21.8466 8.98437 22.4582C8.31605 23.0697 7.30895 23.0697 6.64062 22.4582L6.1374 21.9977C5.75607 21.6487 5.18143 21.6487 4.8001 21.9977C4.15104 22.5916 3.125 22.1172 3.125 21.2233V6.63564C3.125 5.39292 3.125 4.77157 3.28953 4.27043C3.60154 3.32015 4.32627 2.57408 5.24936 2.25288C5.73616 2.0835 6.33973 2.0835 7.5469 2.0835Z" fill="#637381"/>
<path d="M7.2915 7.03125C6.86004 7.03125 6.51025 7.38103 6.51025 7.8125C6.51025 8.24397 6.86004 8.59375 7.2915 8.59375H7.81234C8.24381 8.59375 8.59359 8.24397 8.59359 7.8125C8.59359 7.38103 8.24381 7.03125 7.81234 7.03125H7.2915Z" fill="#637381"/>
<path d="M10.9375 7.03125C10.506 7.03125 10.1562 7.38103 10.1562 7.8125C10.1562 8.24397 10.506 8.59375 10.9375 8.59375H17.7083C18.1398 8.59375 18.4896 8.24397 18.4896 7.8125C18.4896 7.38103 18.1398 7.03125 17.7083 7.03125H10.9375Z" fill="#637381"/>
<path d="M7.2915 10.6772C6.86004 10.6772 6.51025 11.027 6.51025 11.4585C6.51025 11.89 6.86004 12.2397 7.2915 12.2397H7.81234C8.24381 12.2397 8.59359 11.89 8.59359 11.4585C8.59359 11.027 8.24381 10.6772 7.81234 10.6772H7.2915Z" fill="#637381"/>
<path d="M10.9375 10.6772C10.506 10.6772 10.1562 11.027 10.1562 11.4585C10.1562 11.89 10.506 12.2397 10.9375 12.2397H17.7083C18.1398 12.2397 18.4896 11.89 18.4896 11.4585C18.4896 11.027 18.1398 10.6772 17.7083 10.6772H10.9375Z" fill="#637381"/>
<path d="M7.2915 14.3228C6.86004 14.3228 6.51025 14.6725 6.51025 15.104C6.51025 15.5355 6.86004 15.8853 7.2915 15.8853H7.81234C8.24381 15.8853 8.59359 15.5355 8.59359 15.104C8.59359 14.6725 8.24381 14.3228 7.81234 14.3228H7.2915Z" fill="#637381"/>
<path d="M10.9375 14.3228C10.506 14.3228 10.1562 14.6725 10.1562 15.104C10.1562 15.5355 10.506 15.8853 10.9375 15.8853H17.7083C18.1398 15.8853 18.4896 15.5355 18.4896 15.104C18.4896 14.6725 18.1398 14.3228 17.7083 14.3228H10.9375Z" fill="#637381"/>
</svg>
