<svg width="25" height="25" viewBox="0 0 25 25" fill="none" xmlns="http://www.w3.org/2000/svg">
<path opacity="0.5" d="M22.9167 12.5C22.9167 18.2529 18.2529 22.9166 12.5 22.9166C6.74703 22.9166 2.08333 18.2529 2.08333 12.5C2.08333 6.74701 6.74703 2.08331 12.5 2.08331C18.2529 2.08331 22.9167 6.74701 22.9167 12.5Z" fill="#637381"/>
<path d="M12.5 8.07294C11.8528 8.07294 11.3281 8.5976 11.3281 9.24481C11.3281 9.67628 10.9783 10.0261 10.5469 10.0261C10.1154 10.0261 9.76562 9.67628 9.76562 9.24481C9.76562 7.73466 10.9899 6.51044 12.5 6.51044C14.0101 6.51044 15.2344 7.73466 15.2344 9.24481C15.2344 9.98527 14.9391 10.6584 14.4615 11.15C14.3653 11.2489 14.2736 11.3405 14.1861 11.4279C13.9614 11.6525 13.7644 11.8493 13.5916 12.0714C13.3634 12.3645 13.2812 12.58 13.2812 12.7604V13.5417C13.2812 13.9731 12.9315 14.3229 12.5 14.3229C12.0685 14.3229 11.7187 13.9731 11.7187 13.5417V12.7604C11.7187 12.0779 12.0365 11.5254 12.3585 11.1117C12.5968 10.8055 12.8962 10.5066 13.1394 10.264C13.2127 10.1909 13.2808 10.1228 13.3406 10.0612C13.5465 9.84943 13.6719 9.56256 13.6719 9.24481C13.6719 8.5976 13.1472 8.07294 12.5 8.07294Z" fill="#637381"/>
<path d="M12.5 17.7083C13.0753 17.7083 13.5417 17.242 13.5417 16.6667C13.5417 16.0914 13.0753 15.625 12.5 15.625C11.9247 15.625 11.4583 16.0914 11.4583 16.6667C11.4583 17.242 11.9247 17.7083 12.5 17.7083Z" fill="#637381"/>
</svg>
