<svg width="25" height="25" viewBox="0 0 25 25" fill="none" xmlns="http://www.w3.org/2000/svg">
<path opacity="0.5" d="M22.9168 12.5002C22.9168 18.2531 18.2531 22.9168 12.5002 22.9168C6.74719 22.9168 2.0835 18.2531 2.0835 12.5002C2.0835 6.74719 6.74719 2.0835 12.5002 2.0835C18.2531 2.0835 22.9168 6.74719 22.9168 12.5002Z" fill="#637381"/>
<path d="M12.5 8.07275C11.8528 8.07275 11.3281 8.59742 11.3281 9.24463C11.3281 9.6761 10.9783 10.0259 10.5469 10.0259C10.1154 10.0259 9.76562 9.6761 9.76562 9.24463C9.76562 7.73447 10.9899 6.51025 12.5 6.51025C14.0101 6.51025 15.2344 7.73447 15.2344 9.24463C15.2344 9.98509 14.9391 10.6582 14.4615 11.1498C14.3653 11.2487 14.2736 11.3404 14.1861 11.4278C13.9614 11.6523 13.7644 11.8491 13.5916 12.0712C13.3634 12.3643 13.2812 12.5798 13.2812 12.7603V13.5415C13.2812 13.973 12.9315 14.3228 12.5 14.3228C12.0685 14.3228 11.7187 13.973 11.7187 13.5415V12.7603C11.7187 12.0778 12.0365 11.5253 12.3585 11.1115C12.5968 10.8054 12.8962 10.5064 13.1394 10.2639C13.2127 10.1907 13.2808 10.1226 13.3406 10.0611C13.5465 9.84924 13.6719 9.56238 13.6719 9.24463C13.6719 8.59742 13.1472 8.07275 12.5 8.07275Z" fill="#637381"/>
<path d="M12.5002 17.7083C13.0755 17.7083 13.5418 17.242 13.5418 16.6667C13.5418 16.0914 13.0755 15.625 12.5002 15.625C11.9249 15.625 11.4585 16.0914 11.4585 16.6667C11.4585 17.242 11.9249 17.7083 12.5002 17.7083Z" fill="#637381"/>
</svg>
