<svg width="25" height="25" viewBox="0 0 25 25" fill="none" xmlns="http://www.w3.org/2000/svg">
<path opacity="0.5" fill-rule="evenodd" clip-rule="evenodd" d="M14.8737 2.24208C14.488 2.0835 13.999 2.0835 13.0208 2.0835C12.0427 2.0835 11.5536 2.0835 11.1679 2.24208C10.6535 2.45353 10.2449 2.8591 10.0318 3.36957C9.93457 3.6026 9.89651 3.8736 9.88161 4.2689C9.85973 4.84983 9.55954 5.38755 9.05226 5.67821C8.54498 5.96887 7.92566 5.95802 7.4078 5.68637C7.05539 5.50152 6.79988 5.39873 6.5479 5.36581C5.99592 5.29368 5.43769 5.44213 4.996 5.7785C4.66473 6.03077 4.4202 6.4511 3.93114 7.29176C3.44209 8.13242 3.19757 8.55275 3.14307 8.96361C3.07039 9.51141 3.21998 10.0654 3.5589 10.5038C3.7136 10.7039 3.93101 10.872 4.26844 11.0825C4.76449 11.3918 5.08366 11.9188 5.08363 12.5002C5.0836 13.0815 4.76444 13.6084 4.26844 13.9177C3.93096 14.1282 3.71351 14.2964 3.5588 14.4965C3.21987 14.9348 3.0703 15.4888 3.14297 16.0366C3.19747 16.4475 3.442 16.8679 3.93104 17.7085C4.42009 18.5491 4.66462 18.9695 4.99589 19.2217C5.43758 19.5581 5.99582 19.7065 6.5478 19.6344C6.79977 19.6015 7.05526 19.4987 7.40763 19.3139C7.92554 19.0422 8.54489 19.0314 9.05221 19.322C9.55952 19.6128 9.85972 20.1505 9.88161 20.7315C9.89651 21.1267 9.93457 21.3978 10.0318 21.6308C10.2449 22.1412 10.6535 22.5468 11.1679 22.7583C11.5536 22.9168 12.0427 22.9168 13.0208 22.9168C13.999 22.9168 14.488 22.9168 14.8737 22.7583C15.3881 22.5468 15.7968 22.1412 16.0098 21.6308C16.1071 21.3978 16.1452 21.1267 16.1601 20.7314C16.182 20.1505 16.4821 19.6128 16.9894 19.322C17.4967 19.0313 18.116 19.0422 18.634 19.3139C18.9864 19.4987 19.2418 19.6014 19.4937 19.6343C20.0457 19.7065 20.604 19.5581 21.0456 19.2217C21.377 18.9694 21.6215 18.5491 22.1105 17.7084C22.5996 16.8678 22.8441 16.4475 22.8986 16.0366C22.9712 15.4888 22.8217 14.9347 22.4828 14.4964C22.328 14.2963 22.1106 14.1281 21.7731 13.9177C21.2772 13.6084 20.958 13.0814 20.958 12.5001C20.958 11.9187 21.2772 11.3919 21.7731 11.0827C22.1107 10.8721 22.3281 10.704 22.4829 10.5038C22.8218 10.0655 22.9714 9.51149 22.8987 8.96367C22.8442 8.55282 22.5997 8.13249 22.1106 7.29183C21.6216 6.45117 21.3771 6.03084 21.0457 5.77857C20.6041 5.4422 20.0458 5.29376 19.4939 5.36588C19.2419 5.3988 18.9864 5.50158 18.6341 5.68641C18.1161 5.95807 17.4968 5.96893 16.9895 5.67825C16.4822 5.38757 16.182 4.84981 16.16 4.26885C16.1451 3.87358 16.1071 3.60259 16.0098 3.36957C15.7968 2.8591 15.3881 2.45353 14.8737 2.24208Z" fill="#637381"/>
<path d="M16.1696 12.5C16.1696 14.2259 14.7599 15.625 13.0209 15.625C11.2818 15.625 9.87207 14.2259 9.87207 12.5C9.87207 10.7741 11.2818 9.375 13.0209 9.375C14.7599 9.375 16.1696 10.7741 16.1696 12.5Z" fill="#637381"/>
</svg>
