<svg width="25" height="25" viewBox="0 0 25 25" fill="none" xmlns="http://www.w3.org/2000/svg">
<path d="M17.2162 2.0835H7.78334C6.53041 2.0835 5.90394 2.0835 5.4005 2.39464C4.89705 2.70579 4.61689 3.26611 4.05656 4.38677L2.59446 8.08276C2.25666 8.93667 1.9611 9.94313 2.52973 10.6642C2.91121 11.148 3.50254 11.4585 4.16644 11.4585C5.31703 11.4585 6.24977 10.5258 6.24977 9.37516C6.24977 10.5258 7.18252 11.4585 8.3331 11.4585C9.4837 11.4585 10.4164 10.5258 10.4164 9.37516C10.4164 10.5258 11.3492 11.4585 12.4998 11.4585C13.6504 11.4585 14.5831 10.5258 14.5831 9.37516C14.5831 10.5258 15.5158 11.4585 16.6665 11.4585C17.8171 11.4585 18.7498 10.5258 18.7498 9.37516C18.7498 10.5258 19.6825 11.4585 20.8331 11.4585C21.497 11.4585 22.0883 11.148 22.4699 10.6642C23.0385 9.94313 22.743 8.93667 22.4052 8.08276L20.9431 4.38677C20.3827 3.26611 20.1026 2.70579 19.5992 2.39464C19.0957 2.0835 18.4693 2.0835 17.2162 2.0835Z" fill="#637381"/>
<path d="M9.896 22.1353V19.2707C9.896 18.2971 9.896 17.8104 10.1053 17.4478C10.2425 17.2103 10.4397 17.013 10.6772 16.8759C11.0399 16.6665 11.5266 16.6665 12.5002 16.6665C13.4737 16.6665 13.9605 16.6665 14.3231 16.8759C14.5606 17.013 14.7579 17.2103 14.895 17.4478C15.1043 17.8104 15.1043 18.2971 15.1043 19.2707V22.1353H9.896Z" fill="#637381"/>
<path opacity="0.5" fill-rule="evenodd" clip-rule="evenodd" d="M4.1665 11.4583C5.31699 11.4582 6.24961 10.5255 6.24961 9.375C6.24961 10.5256 7.18236 11.4583 8.33294 11.4583C9.48354 11.4583 10.4163 10.5256 10.4163 9.375C10.4163 10.5256 11.349 11.4583 12.4996 11.4583C13.6503 11.4583 14.583 10.5256 14.583 9.375C14.583 10.5256 15.5157 11.4583 16.6663 11.4583C17.8169 11.4583 18.7496 10.5256 18.7496 9.375C18.7496 10.5256 19.6823 11.4583 20.833 11.4583L20.8332 22.1354H15.104V19.2708C15.104 18.2973 15.104 17.8105 14.8946 17.4479C14.7575 17.2104 14.5603 17.0131 14.3228 16.876C13.9601 16.6667 13.4734 16.6667 12.4998 16.6667C11.5263 16.6667 11.0395 16.6667 10.6769 16.876C10.4394 17.0131 10.2421 17.2104 10.105 17.4479C9.89567 17.8105 9.89567 18.2973 9.89567 19.2708V22.1354H4.1665V11.4583Z" fill="#637381"/>
<path d="M15.1043 22.1353H9.896H4.16683H2.0835C1.65203 22.1353 1.30225 22.485 1.30225 22.9165C1.30225 23.348 1.65203 23.6978 2.0835 23.6978H22.9168C23.3483 23.6978 23.6981 23.348 23.6981 22.9165C23.6981 22.485 23.3483 22.1353 22.9168 22.1353H20.8335H15.1043Z" fill="#637381"/>
</svg>
