<svg width="25" height="25" viewBox="0 0 25 25" fill="none" xmlns="http://www.w3.org/2000/svg">
<path d="M17.7082 12.5001C17.7082 15.3765 15.3763 17.7084 12.4998 17.7084C9.62336 17.7084 7.2915 15.3765 7.2915 12.5001C7.2915 9.6236 9.62336 7.29175 12.4998 7.29175C15.3763 7.29175 17.7082 9.6236 17.7082 12.5001Z" fill="#637381"/>
<path fill-rule="evenodd" clip-rule="evenodd" d="M12.5002 1.302C12.9316 1.302 13.2814 1.65178 13.2814 2.08325V4.16659C13.2814 4.59805 12.9316 4.94784 12.5002 4.94784C12.0687 4.94784 11.7189 4.59805 11.7189 4.16659V2.08325C11.7189 1.65178 12.0687 1.302 12.5002 1.302ZM1.30225 12.4999C1.30225 12.0685 1.65203 11.7187 2.0835 11.7187H4.16683C4.5983 11.7187 4.94808 12.0685 4.94808 12.4999C4.94808 12.9314 4.5983 13.2812 4.16683 13.2812H2.0835C1.65203 13.2812 1.30225 12.9314 1.30225 12.4999ZM20.0522 12.4999C20.0522 12.0685 20.402 11.7187 20.8335 11.7187H22.9168C23.3483 11.7187 23.6981 12.0685 23.6981 12.4999C23.6981 12.9314 23.3483 13.2812 22.9168 13.2812H20.8335C20.402 13.2812 20.0522 12.9314 20.0522 12.4999ZM12.5002 20.052C12.9316 20.052 13.2814 20.4018 13.2814 20.8333V22.9166C13.2814 23.348 12.9316 23.6978 12.5002 23.6978C12.0687 23.6978 11.7189 23.348 11.7189 22.9166V20.8333C11.7189 20.4018 12.0687 20.052 12.5002 20.052Z" fill="#637381"/>
<g opacity="0.5">
<path d="M3.82186 3.87054C4.11301 3.5521 4.60717 3.52999 4.92561 3.82113L7.24021 5.93736C7.55865 6.22851 7.58077 6.72267 7.28962 7.04111C6.99847 7.35955 6.50431 7.38167 6.18588 7.09053L3.87128 4.97429C3.55284 4.68314 3.53071 4.18898 3.82186 3.87054Z" fill="#637381"/>
<path d="M21.1788 3.87054C21.4699 4.18898 21.4479 4.68314 21.1294 4.97429L18.8147 7.09053C18.4963 7.38167 18.0021 7.35955 17.711 7.04111C17.4198 6.72267 17.442 6.22851 17.7605 5.93736L20.0751 3.82113C20.3935 3.52999 20.8877 3.5521 21.1788 3.87054Z" fill="#637381"/>
<path d="M17.7352 17.7341C18.0403 17.429 18.5349 17.4291 18.84 17.7343L21.1546 20.0491C21.4597 20.3543 21.4597 20.8488 21.1546 21.1539C20.8495 21.459 20.3548 21.459 20.0497 21.1538L17.7351 18.839C17.43 18.5338 17.4301 18.0393 17.7352 17.7341Z" fill="#637381"/>
<path d="M7.26568 17.7345C7.57078 18.0395 7.57078 18.5341 7.26568 18.8392L4.95087 21.154C4.64577 21.4591 4.15111 21.4591 3.84602 21.154C3.54091 20.8489 3.54091 20.3544 3.84602 20.0492L6.16083 17.7344C6.46592 17.4294 6.96059 17.4294 7.26568 17.7345Z" fill="#637381"/>
</g>
</svg>
