<svg width="79" height="79" viewBox="0 0 79 79" fill="none" xmlns="http://www.w3.org/2000/svg">
<g clip-path="url(#clip0_22_29268)">
<circle cx="39.5" cy="39.5" r="39.5" fill="#613E28" fill-opacity="0.16"/>
<path d="M56.316 75.9C56.316 75.9 55.116 78.7 40.216 78.7C25.316 78.7 24.016 75.9 24.016 75.9C23.9445 74.3171 24.1131 72.7325 24.516 71.2C24.5693 70.9631 24.6361 70.7293 24.716 70.5H24.816V70.3C24.8522 70.2594 24.8797 70.2119 24.8969 70.1603C24.9141 70.1087 24.9206 70.0542 24.916 70L25.116 69.7C25.216 69.6 25.216 69.4 25.316 69.2C25.416 69 25.516 69 25.516 68.9L25.716 68.7L25.916 68.5C25.916 68.4 26.016 68.4 26.016 68.3L26.416 67.8H26.516L26.916 67.4H27.116L27.316 67.2L27.516 67H27.616L27.816 66.8H27.916L28.316 66.4C28.416 66.4 28.416 66.4 28.416 66.3H28.616C28.716 66.2 28.816 66.2 28.816 66.1H29.516L30.816 64.9C31.1072 64.6591 31.3751 64.3913 31.616 64.1C31.716 64 31.816 63.9 31.816 63.8L32.216 63.4L32.416 63.1L32.816 62.6C32.9829 62.4246 33.1182 62.2216 33.216 62L33.516 61.6C33.7048 61.3479 33.8721 61.0803 34.016 60.8C34.316 60.3 34.516 59.8 34.716 59.4C34.916 59 34.816 59.1 34.916 59C35.3753 57.9252 35.6134 56.7688 35.616 55.6V51.7L35.316 41.3V39.9H31.316L30.316 37.4L31.716 36.5H27.916V34.7C27.9086 33.7251 28.2251 32.7754 28.816 32L29.016 31.7C29.4114 31.1791 29.9071 30.7426 30.4739 30.4163C31.0406 30.09 31.667 29.8805 32.316 29.8L34.016 29.6C32.0844 27.9871 30.6893 25.8247 30.016 23.4C29.4068 21.0639 29.3518 18.6177 29.8553 16.2565C30.3587 13.8954 31.4068 11.6844 32.916 9.8C34.375 7.92624 36.1317 6.30468 38.116 5C37.5596 4.44011 37.2377 3.68906 37.216 2.9C37.2419 2.12181 37.5694 1.3842 38.1292 0.843036C38.6891 0.301876 39.4374 -0.000430939 40.216 1.74538e-06C40.7879 -0.000636625 41.3462 0.173852 41.816 0.500002C42.3993 0.86742 42.8266 1.43713 43.016 2.1C42.5019 2.90588 42.0345 3.74059 41.616 4.6C41.4087 4.94681 41.241 5.31578 41.116 5.7C39.2622 10.1311 38.343 14.8973 38.416 19.7H41.916C41.8382 15.2302 42.725 10.7961 44.516 6.7C45.5502 7.60084 46.4885 8.60618 47.316 9.7H47.416C47.416 9.8 47.416 9.8 47.516 9.8C48.9875 11.704 50.0048 13.919 50.49 16.2759C50.9753 18.6329 50.9157 21.0696 50.316 23.4C49.6426 25.8247 48.2475 27.9871 46.316 29.6L48.016 29.8C48.9 29.8777 49.7383 30.227 50.416 30.8C50.806 30.994 51.122 31.31 51.316 31.7C51.416 31.8 51.516 31.9 51.516 32C52.136 32.7662 52.4873 33.7148 52.516 34.7V36.5H48.616L50.116 37.4L49.116 39.9H45.416L44.716 51.7V54.3C44.716 54.3 44.416 59.1 50.816 64.8C50.816 64.8 55.116 67.6 55.816 71.2C56.2189 72.7325 56.3874 74.3171 56.316 75.9Z" fill="#613E28"/>
<path d="M42.6159 38.7L42.3159 39.9H31.3159L30.3159 37.3L31.7159 36.5H42.3159C42.532 36.8188 42.6715 37.1833 42.7236 37.5649C42.7756 37.9465 42.7388 38.335 42.6159 38.7Z" fill="#764D34"/>
<path d="M47.5159 9.79995C47.4159 9.79995 47.4159 9.79995 47.4159 9.69995H47.3159C47.5159 9.89995 54.3159 22.3 43.3159 29.4L46.3159 29.6C48.2687 27.9455 49.694 25.7554 50.4159 23.3C50.9712 20.976 50.999 18.5571 50.4972 16.221C49.9953 13.8849 48.9767 11.6908 47.5159 9.79995Z" fill="#4F3220"/>
<path d="M41.816 0.5C42.2085 1.86785 42.0654 3.3338 41.416 4.6C40.016 7.8 35.016 13.4 38.416 19.7C38.343 14.8973 39.2622 10.1311 41.116 5.7C41.2213 5.30841 41.3902 4.93679 41.616 4.6C42.0345 3.74059 42.5019 2.90588 43.016 2.1C42.8266 1.43712 42.3994 0.867418 41.816 0.5Z" fill="#764D34"/>
<path d="M50.4159 30.8C49.7382 30.227 48.8999 29.8777 48.0159 29.8L46.3159 29.6L43.3159 29.4C40.2148 29.2667 37.1083 29.3335 34.0159 29.6L32.3159 29.8C31.6669 29.8804 31.0405 30.09 30.4738 30.4163C29.907 30.7426 29.4113 31.1791 29.0159 31.7C36.4408 31.2001 43.8909 31.2001 51.3159 31.7C51.1219 31.31 50.8059 30.994 50.4159 30.8Z" fill="#4F3220"/>
<path d="M41.3161 43.1C39.9161 41.8 36.5161 41.3 35.3161 41.3L35.6161 51.7V54.3C35.6135 55.4688 35.3754 56.6252 34.9161 57.7C34.8161 57.8 34.8161 57.9 34.7161 58.1C34.6161 58.3 34.3161 59 34.0161 59.5C33.8722 59.7802 33.7049 60.0479 33.5161 60.3L33.2161 60.7C33.1183 60.9216 32.983 61.1245 32.8161 61.3L32.4161 61.8L32.2161 62.1L31.8161 62.5C31.8161 62.6 31.7161 62.7 31.6161 62.8L30.8161 63.7L29.5161 64.8H28.8161C28.8161 64.9 28.7161 64.9 28.6161 65H28.3161L27.9161 65.4H27.8161L27.6161 65.6H27.5161L27.3161 65.8L27.1161 66H26.9161L26.5161 66.4H26.4161L26.0161 66.9C26.0161 67 25.9161 67 25.9161 67.1L25.7161 67.3L25.5161 67.5C25.5161 67.6 25.4161 67.7 25.4161 67.8L25.1161 68.3L24.9161 68.6C24.9207 68.6542 24.9142 68.7087 24.897 68.7603C24.8798 68.8119 24.8522 68.8594 24.8161 68.9V69.1H24.7161L25.5161 69.5L25.9161 69.7L26.8161 70.1H27.2161L27.9161 70.4H28.2161L28.8161 70.6H29.0161L30.6161 70.9L35.3161 70.6C36.4619 70.616 37.5757 70.2215 38.456 69.4879C39.3364 68.7543 39.9252 67.7299 40.1161 66.6L42.1161 55.5C42.1161 55.1 42.3161 52.8 42.3161 50.2C42.3161 47.6 42.1161 43.8 41.3161 43.1Z" fill="#764D34"/>
<path d="M39.616 1.30004C39.616 1.20004 39.516 1.10004 39.416 1.00004C39.316 0.900039 38.616 1.30004 38.416 1.50004C38.236 1.68023 38.1047 1.90331 38.0348 2.14825C37.9648 2.39319 37.9583 2.65192 38.016 2.90004C38.091 3.10604 38.2315 3.28172 38.416 3.40004C38.487 3.45684 38.5751 3.48779 38.666 3.48779C38.7569 3.48779 38.8451 3.45684 38.916 3.40004L39.116 3.20004C39.2943 2.81643 39.4284 2.41386 39.516 2.00004C39.516 1.80004 39.616 1.50004 39.616 1.30004Z" fill="#764D34"/>
<path d="M31.116 19.7C31.0703 20.8957 31.2747 22.0878 31.716 23.2C32.0364 24.0057 32.4385 24.7763 32.916 25.5C33.3264 26.1418 33.795 26.7443 34.316 27.3C34.6373 27.5349 35.0188 27.6736 35.416 27.7C35.7686 27.6537 36.0904 27.475 36.316 27.2C36.5623 26.9518 36.7353 26.6403 36.816 26.3C36.8708 26.0589 36.8724 25.8087 36.8206 25.5669C36.7688 25.3251 36.6648 25.0975 36.516 24.9L35.516 23.7C34.496 22.8323 33.648 21.7807 33.016 20.6L31.916 18.5L31.616 18.3C31.316 18.2 31.316 18.4 31.216 18.6C31.1258 18.8565 31.0917 19.1293 31.116 19.4V19.7Z" fill="#764D34"/>
</g>
<defs>
<clipPath id="clip0_22_29268">
<rect width="79" height="79" fill="white"/>
</clipPath>
</defs>
</svg>
