<svg width="537" height="350" viewBox="0 0 537 350" fill="none" xmlns="http://www.w3.org/2000/svg">
<g clip-path="url(#clip0_193_90)">
<g opacity="0.72">
<path d="M4.23998 0C2.82864 0.583333 1.41564 1.15 0.000976562 1.7V2.133C1.76764 1.44433 3.53198 0.733333 5.29398 0H4.23998Z" fill="#CFCFCF"/>
<path d="M21.927 0H21.027C18.3603 1.316 15.6463 2.59167 12.885 3.827C11.976 4.232 11.07 4.632 10.162 5.027C6.77864 6.491 3.39164 7.86833 0.000976562 9.159V9.593C4.36631 7.921 8.71698 6.117 13.053 4.181C16.0583 2.83767 19.0163 1.444 21.927 0Z" fill="#CFCFCF"/>
<path d="M171.761 125.852C199.106 111.252 225.961 95.633 251.696 79.326C277.341 63.078 302.311 45.877 326.001 28.1C338.209 18.938 350.145 9.57133 361.808 0H361.334C281.634 65.4 186.792 122.676 85.646 167.584C81.8153 169.285 77.9913 170.962 74.174 172.615C49.921 183.123 25.137 192.924 0.000976562 201.971V202.494C28.741 191.977 57.511 180.337 85.755 167.794C115.043 154.793 143.929 140.708 171.761 125.852Z" fill="#CFCFCF"/>
<path d="M153.723 108.661C178.277 95.461 202.33 81.319 225.311 66.561C248.177 51.879 270.351 36.347 291.286 20.319C299.981 13.6637 308.501 6.89067 316.845 0H314.336C245.581 56.844 163.089 107.73 76.206 146.339C72.718 147.889 69.2313 149.419 65.746 150.929C44.054 160.327 22.139 169.055 0.000976562 177.114V177.405C25.581 168.082 51.187 157.738 76.322 146.568C102.713 134.842 128.714 122.109 153.723 108.661Z" fill="#CFCFCF"/>
<path d="M136.95 92.673C158.921 80.773 180.397 68.032 200.855 54.731C221.182 41.514 240.822 27.545 259.281 13.146C264.828 8.818 270.288 4.436 275.661 0H275.137C215.753 49.007 144.337 92.344 67.415 126.556C64.3163 127.934 61.223 129.292 58.135 130.63C39.03 138.907 19.601 146.57 0.000976562 153.595V154.064C22.639 145.838 45.301 136.695 67.538 126.802C91.233 116.263 114.553 104.8 136.95 92.673Z" fill="#CFCFCF"/>
<path d="M191.01 144.2C221.353 128.13 251.228 110.941 279.955 93C308.625 75.092 336.655 56.12 363.388 36.485C379.507 24.643 395.257 12.4813 410.638 0H410.189C318.358 74.52 210.234 139.423 95.706 190.223C91.4706 192.103 87.2433 193.957 83.024 195.784C55.957 207.51 28.217 218.5 0.000976562 228.7V229.257C32.11 217.449 64.25 204.42 95.807 190.424C128.185 176.057 160.154 160.541 191.01 144.2Z" fill="#CFCFCF"/>
<path d="M232.784 184.013C269.701 164.8 306.246 144.268 341.641 122.839C377.089 101.379 412.065 78.597 445.781 54.951C470.977 37.279 495.793 18.892 519.916 0H515.094C392.346 96.266 254.291 178.687 117.488 239.24C112.375 241.501 107.275 243.735 102.188 245.94C69.0953 260.277 35.033 273.84 0.000976562 286.628V287.274C39.401 272.6 78.839 256.546 117.571 239.4C156.643 222.108 195.315 203.52 232.784 184.013Z" fill="#CFCFCF"/>
<path d="M68.241 323.181C92.491 313.281 116.967 302.881 141.049 292.241C164.318 281.965 187.666 271.258 210.499 260.394C233.083 249.65 255.776 238.457 277.999 227.103C300.071 215.825 322.268 204.084 344.019 192.177C365.719 180.296 387.561 167.935 408.965 155.406C452.041 130.194 494.96 103.381 536.816 75.458V71.396C405.946 160.054 270.93 234.721 140.982 292.111C134.923 294.786 128.893 297.424 122.849 300.042C83.3756 317.141 42.4263 333.542 0.000976562 349.243V350C22.783 341.391 45.701 332.386 68.241 323.181Z" fill="#CFCFCF"/>
<path d="M211.39 163.622C244.927 146.007 278.038 127.18 309.99 107.522C341.942 87.864 373.3 67.036 403.372 45.44C423.812 30.762 443.881 15.565 463.363 0H462.942C357.49 84.233 235.035 157.131 106.341 214.155C101.674 216.222 97.02 218.261 92.378 220.273C62.3586 233.279 31.5663 245.511 0.000976562 256.968V257.568C35.671 244.374 71.373 229.868 106.433 214.338C142.078 198.54 177.315 181.518 211.39 163.622Z" fill="#CFCFCF"/>
<path d="M121.458 77.907C141.058 67.227 160.173 55.781 178.337 43.837C196.361 31.984 213.715 19.464 229.957 6.574C232.698 4.398 235.413 2.20667 238.101 0H236.255C185.733 41.522 124.745 79.126 59.286 108.262C56.486 109.509 53.686 110.738 50.886 111.951C34.0673 119.238 17.1056 125.98 0.000976562 132.179V132.496C19.919 125.272 39.85 117.231 59.417 108.522C80.618 99.086 101.465 88.8 121.458 77.907Z" fill="#CFCFCF"/>
<path d="M56.601 0H55.854C44.2064 7.12273 32.1093 13.4831 19.639 19.041C13.1176 21.9543 6.57164 24.6267 0.000976562 27.058V27.494C6.62964 25.02 13.232 22.316 19.808 19.382C32.4849 13.7368 44.7759 7.26214 56.601 0Z" fill="#CFCFCF"/>
<path d="M93.015 2.561C94.249 1.713 95.4746 0.859333 96.692 0H95.682C74.4756 14.9127 51.8668 27.7238 28.176 38.252C18.8466 42.4173 9.45498 46.2333 0.000976562 49.7V50.09C9.48764 46.606 18.9323 42.7673 28.335 38.574C50.9416 28.5542 72.5907 16.5003 93.015 2.561Z" fill="#CFCFCF"/>
<path d="M75.773 0H74.845C58.5956 10.7723 41.4767 20.1715 23.666 28.1C22.324 28.7 20.988 29.286 19.647 29.866C13.1216 32.6953 6.57298 35.316 0.000976562 37.728V38.154C7.97764 35.204 15.9206 31.9637 23.83 28.433C41.9011 20.4086 59.275 10.8983 75.773 0Z" fill="#CFCFCF"/>
<path d="M38.817 0H38.001C30.971 3.917 23.636 7.592 16.058 10.98C10.7326 13.3593 5.38031 15.5637 0.000976562 17.593V18.01C5.43098 15.9593 10.8403 13.7313 16.229 11.326C24.0356 7.83733 31.565 4.062 38.817 0Z" fill="#CFCFCF"/>
<path d="M82.51 40.784C96.201 33.206 109.483 25.074 122.018 16.59C129.941 11.228 137.63 5.678 145.011 0H143.781C111.354 24.7771 76.1189 45.6457 38.806 62.174C25.982 67.894 13.01 73.1 0.000976562 77.782V78.219C13.063 73.469 26.124 68.2 38.954 62.475C53.878 55.819 68.52 48.528 82.51 40.784Z" fill="#CFCFCF"/>
<path d="M94.274 52C109.743 43.48 124.774 34.34 138.986 24.8C150.832 16.853 162.245 8.537 173.022 0H171.627C135.29 28.872 91.951 55.183 45.001 76.11C42.801 77.09 40.6056 78.0533 38.415 79C25.717 84.504 12.9123 89.5707 0.000976562 94.2V94.625C15.138 89.133 30.276 83.025 45.143 76.398C61.963 68.9 78.478 60.7 94.274 52Z" fill="#CFCFCF"/>
<path d="M107.242 64.358C124.676 54.804 141.648 44.558 157.733 33.869C173.676 23.275 188.978 12.089 203.244 0.585C203.485 0.391 203.724 0.195 203.964 0H203.401C159.966 35.131 108.02 66.423 51.818 91.457C49.32 92.569 46.823 93.666 44.327 94.748C29.6643 101.1 14.889 106.97 0.000976562 112.359V112.699C17.42 106.385 34.845 99.353 51.956 91.731C70.867 83.308 89.448 74.109 107.242 64.358Z" fill="#CFCFCF"/>
<path d="M106.732 9.2C111.132 6.19667 115.442 3.13 119.661 0H119.027C92.286 19.5624 63.5141 36.185 33.21 49.58C22.22 54.484 11.1503 58.9673 0.000976562 63.03V63.4C11.19 59.32 22.372 54.8 33.364 49.892C58.983 38.5401 83.5366 24.9219 106.732 9.2Z" fill="#CFCFCF"/>
<path d="M129.142 265.437C150.567 255.963 172.057 246.077 193.054 236.031C213.818 226.098 234.662 215.742 255.045 205.225C295.497 184.358 335.667 162.085 374.715 138.835C413.894 115.506 452.739 90.719 490.399 64.949C505.975 54.2896 521.446 43.3926 536.812 32.258V31.981C410.463 123.481 271.745 202.209 129.066 265.292C123.488 267.759 117.921 270.195 112.366 272.602C76.116 288.309 38.661 303.265 0.000976562 317.469V318.169C20.725 310.396 41.57 302.252 62.077 293.908C84.416 284.818 106.964 275.247 129.142 265.437Z" fill="#CFCFCF"/>
</g>
</g>
<defs>
<clipPath id="clip0_193_90">
<rect width="536.812" height="350" fill="white"/>
</clipPath>
</defs>
</svg>
