<svg width="835" height="659" viewBox="0 0 835 659" fill="none" xmlns="http://www.w3.org/2000/svg">
<g clip-path="url(#clip0_193_72)">
<g opacity="0.72">
<path d="M685.615 285.14C646.103 306.198 606.57 329.163 567.909 353.446C529.741 377.422 491.811 403.068 454.954 429.771C417.97 456.564 381.401 484.91 346.034 514.149C310.005 543.94 274.481 575.287 240.224 607.507C222.489 624.186 205.08 641.139 187.998 658.366H188.38C205.388 641.213 222.737 624.315 240.429 607.672C244.759 603.596 249.094 599.554 253.431 595.545C421.359 440.124 630.591 302.156 835.002 217.297V214.573C826.181 218.194 817.364 221.913 808.552 225.729C767.62 243.456 726.315 263.45 685.615 285.14Z" fill="#D1D1D1"/>
<path d="M827.488 540.572C816.058 530.925 802.833 523.634 788.574 519.119C773.411 514.315 757.637 511.716 741.734 511.402C724.323 511.02 706.916 512.365 689.77 515.418C671.059 518.713 652.607 523.343 634.557 529.273C615.162 535.619 596.133 543.037 577.559 551.493C558.531 560.104 539.146 570.032 519.897 581.001C500.684 591.951 481.371 604.073 462.439 617.046C443.676 629.907 425.033 643.796 406.939 658.359H407.762C541.181 551.893 696.332 489.728 787.72 519.923C807.199 526.358 822.955 536.382 834.998 549.445V547.78C832.625 545.245 830.118 542.839 827.488 540.572Z" fill="#D1D1D1"/>
<path d="M720.212 473.743C698.645 477.982 677.391 483.685 656.599 490.813C634.469 498.378 612.757 507.117 591.556 516.993C569.947 527.005 547.984 538.454 526.222 551.025C504.532 563.554 482.758 577.36 461.443 592.086C439.918 606.952 418.541 622.975 397.83 639.752C390.335 645.822 382.889 652.022 375.494 658.351H376.062C444.097 600.215 518.125 551.496 591.324 517.6C685.046 474.196 771.584 457.74 835.003 475.121V474.089C817.317 469.545 799.112 467.336 780.853 467.518C760.489 467.696 740.187 469.78 720.212 473.743Z" fill="#D1D1D1"/>
<path d="M825.324 417.664C801.484 418.647 777.777 421.723 754.475 426.856C729.621 432.291 705.143 439.324 681.194 447.912C655.976 456.933 631.233 467.232 607.062 478.77C582.571 490.406 557.741 503.602 533.192 517.992C508.76 532.311 484.28 548.012 460.346 564.682C436.2 581.496 412.239 599.558 389.03 618.424C373.239 631.262 357.618 644.627 342.311 658.367H342.817C424.949 584.686 516.15 522.429 606.838 479.361C689.557 440.074 768.419 418.36 834.997 418.263V417.481C831.8 417.493 828.576 417.554 825.324 417.664Z" fill="#D1D1D1"/>
<path d="M807.057 650.314C806.997 636.15 804.434 622.109 799.486 608.837C795.028 597.146 788.074 586.567 779.108 577.84C769.86 569.074 758.918 562.292 746.953 557.909C734.24 553.266 720.897 550.574 707.377 549.923C692.473 549.175 677.531 549.983 662.795 552.335C646.566 554.89 630.551 558.654 614.884 563.596C597.904 568.928 581.245 575.232 564.989 582.478C548.26 589.884 531.179 598.489 514.192 608.052C497.204 617.615 480.121 628.239 463.343 639.654C454.549 645.641 445.8 651.876 437.095 658.358H438.183C550.505 575.651 673.878 531.293 746.101 558.713C787.668 574.495 807.693 610.368 806.631 658.358H806.99C807.078 655.639 807.1 652.957 807.057 650.314Z" fill="#D1D1D1"/>
<path d="M652.017 646.398C638.027 639.308 620.284 636.919 599.402 639.1C588.813 640.278 578.34 642.329 568.089 645.231C556.759 648.423 545.641 652.32 534.798 656.901C533.658 657.378 532.514 657.87 531.368 658.366H533.475C580.418 638.513 623.256 633.04 651.158 647.211C656.83 650.054 661.987 653.824 666.417 658.366H668.081C663.479 653.454 658.04 649.402 652.017 646.398Z" fill="#D1D1D1"/>
<path d="M737.483 609.913C729.959 602.018 720.862 595.789 710.781 591.627C700.09 587.239 688.772 584.569 677.248 583.715C664.475 582.741 651.634 583.162 638.952 584.972C624.879 586.948 610.981 590.014 597.383 594.143C582.534 598.628 567.966 603.991 553.753 610.204C539.063 616.579 524.039 624.03 509.071 632.365C494.933 640.232 480.693 648.975 466.673 658.37H467.44C494.654 640.01 523.455 624.118 553.498 610.884C616.451 583.585 672.119 576.341 709.935 592.441C737.302 604.093 753.653 626.637 757.242 658.37H758.292C757.55 651.294 756.044 644.318 753.802 637.566C750.414 627.282 744.848 617.85 737.483 609.913Z" fill="#D1D1D1"/>
<path d="M679.341 620.931C662.823 613.213 642.112 610.891 617.919 613.758C605.711 615.285 593.646 617.789 581.839 621.245C568.864 625.024 556.132 629.593 543.715 634.926C530.32 640.664 517.221 647.07 504.469 654.122C501.964 655.502 499.456 656.921 496.946 658.364H497.869C512.615 649.909 527.838 642.314 543.461 635.617C598.435 612.214 646.495 606.748 678.492 621.742C686.313 625.259 693.348 630.314 699.175 636.606C705.003 642.898 709.505 650.298 712.414 658.366H713.546C710.725 650.109 706.232 642.523 700.346 636.082C694.461 629.641 687.31 624.483 679.341 620.931Z" fill="#D1D1D1"/>
<path d="M612.798 140.688C556.617 178.959 501.382 218.75 448.131 259.215C421.654 279.338 395.181 300.004 369.386 320.677C343.507 341.415 317.619 362.72 292.379 384.044C266.938 405.53 241.466 427.617 216.612 449.734C191.448 472.127 166.224 495.173 141.577 518.285C117.764 540.615 94.0378 563.451 71.0065 586.214C48.2238 608.726 25.5036 631.779 3.42527 654.779C2.283 655.971 1.14074 657.165 -0.00152588 658.362H1.49626C47.787 609.287 94.5261 562.63 141.713 518.394C147.913 512.578 154.11 506.805 160.304 501.075C346.315 328.913 577.785 156.347 834.998 5.49077V0C820.068 8.76723 805.25 17.5948 790.544 26.4827C729.922 63.1702 670.297 101.525 612.798 140.688Z" fill="#D1D1D1"/>
<path d="M589.257 252.261C542.556 282.783 496.384 314.982 451.685 348.124C406.985 381.266 362.868 416.025 320.247 451.627C276.894 487.837 234.111 525.758 192.766 564.588C160.19 595.181 128.309 626.583 97.5565 658.364H98.521C129.45 626.012 160.921 594.799 192.934 564.725C198.165 559.813 203.394 554.939 208.621 550.101C385.19 386.678 604.556 231.63 834.997 113.468V109.437C801.348 126.625 767.924 144.648 735.03 163.318C685.727 191.305 636.791 221.196 589.257 252.261Z" fill="#D1D1D1"/>
<path d="M578.275 304.31C535.975 331.408 494.034 360.195 453.36 389.999C412.611 419.86 372.358 451.305 333.449 483.642C293.842 516.56 254.774 551.105 217.053 586.553C192.072 610.033 167.589 634.054 143.81 658.364H144.174C167.963 634.013 192.317 610.127 217.236 586.706C222.006 582.222 226.776 577.774 231.546 573.359C403.637 414.081 617.603 267.649 834.995 165.945V162.592C792.947 182.134 750.854 203.508 709.501 226.244C665.291 250.558 621.225 276.799 578.275 304.31Z" fill="#D1D1D1"/>
<path d="M600.79 197.597C549.457 231.844 498.839 267.713 449.94 304.417C401.111 341.066 352.996 379.306 306.52 418.339C283.064 438.04 259.58 458.323 236.671 478.661C213.473 499.255 190.231 520.468 167.543 541.767C145.621 562.341 123.799 583.396 102.641 604.388C84.7597 622.128 66.9443 640.233 49.5256 658.361H49.9058C88.1711 618.489 127.435 579.666 167.697 541.891C173.403 536.534 179.109 531.216 184.815 525.937C366.058 358.19 591.311 194.412 835 59.9213V55.1729C810.45 68.7034 786.148 82.5159 762.096 96.6104C707.313 128.714 653.181 162.643 600.79 197.597Z" fill="#D1D1D1"/>
<path d="M642.943 390.322C611.671 406.017 580.166 423.484 549.171 442.257C518.438 460.871 487.76 481.036 457.849 502.256C427.752 523.608 397.937 546.376 369.071 570.023C339.631 594.145 310.622 619.644 282.704 645.936C278.332 650.053 273.988 654.195 269.671 658.364H270.116C274.367 654.262 278.642 650.185 282.941 646.131C286.507 642.775 290.08 639.44 293.659 636.126C400.466 537.271 520.974 451.948 642.742 390.859C708.303 357.963 773.207 332.593 835 316.218V315.644C802.358 324.434 770.235 335.05 738.783 347.443C707.177 359.817 674.965 374.251 642.943 390.322Z" fill="#D1D1D1"/>
<path d="M708.533 400.218C680.832 410.537 652.473 422.786 624.172 436.593C596.466 450.114 568.461 465.304 540.837 481.757C513.397 498.096 485.948 515.91 459.149 534.741C432.146 553.713 405.37 574.022 379.446 595.177C354.821 615.272 330.547 636.489 307.096 658.364H307.557C308.91 657.103 310.264 655.844 311.619 654.588C470.684 507.366 672.367 393.887 835.003 367.066V365.814C821.234 368.015 807.176 370.829 792.922 374.234C764.292 381.177 736.11 389.854 708.533 400.218Z" fill="#D1D1D1"/>
<path d="M663.422 339.852C628.222 358.046 592.871 378.098 558.2 399.473C523.89 420.625 489.717 443.401 456.45 467.242C423.023 491.2 389.937 516.646 357.926 542.99C325.294 569.847 293.128 598.173 262.133 627.337C251.27 637.559 240.546 647.902 229.959 658.366H230.367C240.881 647.975 251.544 637.692 262.354 627.516C266.271 623.83 270.191 620.173 274.112 616.545C438.351 464.533 643.732 334.871 834.995 267.632V265.476C814.138 272.705 793.112 280.686 772.08 289.342C736.087 304.163 699.57 321.164 663.422 339.852Z" fill="#D1D1D1"/>
</g>
</g>
<defs>
<clipPath id="clip0_193_72">
<rect width="835" height="658.365" fill="white"/>
</clipPath>
</defs>
</svg>
