<svg width="141" height="142" viewBox="0 0 141 142" fill="none" xmlns="http://www.w3.org/2000/svg">
<path d="M33.9991 12.5428C29.7324 16.8094 29.8657 18.6761 34.6657 22.4094L38.5324 25.3428L42.1324 22.1428C45.4657 19.3428 45.7324 18.6761 44.3991 15.6094C43.4657 13.7428 41.5991 11.4761 39.9991 10.6761C37.7324 9.47611 36.7991 9.74277 33.9991 12.5428Z" fill="black"/>
<path d="M50.9323 31.6095C51.199 39.3428 50.6656 44.8095 49.4656 47.6095C47.7323 52.0095 47.599 52.0095 38.6656 52.0095C27.4656 52.0095 25.7323 51.3428 23.199 46.5428C21.4656 43.0761 21.4656 41.8761 23.3323 35.7428C24.399 32.0095 25.3323 27.8761 25.3323 26.8095C25.3323 24.2761 18.1323 20.8095 15.199 21.8761C12.9323 22.6761 12.9323 22.9428 10.799 34.4095C8.26563 47.8761 11.599 54.9428 23.0656 60.6761C31.8656 65.2095 44.9323 65.3428 52.6656 60.9428C60.6656 56.4095 63.199 50.2761 63.7323 33.6095L64.2656 20.0095H57.3323H50.399L50.9323 31.6095Z" fill="black"/>
<path d="M97.4656 63.2098L94.5322 66.4098L97.7322 70.0098C101.199 74.1431 104.799 73.8764 107.732 69.2098C109.332 66.8098 109.199 66.0098 106.532 63.2098C102.799 59.2098 101.199 59.2098 97.4656 63.2098Z" fill="black"/>
<path d="M112.665 62.8097C110.265 65.2097 110.265 65.743 112.132 69.0763C114.532 73.4763 117.999 74.2763 121.465 71.2097C124.665 68.2763 124.665 65.0763 121.599 62.2763C118.399 59.343 115.999 59.4763 112.665 62.8097Z" fill="black"/>
<path d="M11.999 85.7432V106.01L16.1324 111.076C19.7324 115.476 20.9324 116.01 26.2657 116.01C30.1324 116.01 33.3324 115.21 34.9324 113.743C37.199 111.743 37.4657 111.743 39.7324 113.743C41.0657 115.076 43.0657 116.01 44.1324 116.01C45.3324 116.01 47.3324 116.943 48.799 118.01C52.399 120.676 56.1324 120.41 60.1324 116.943C67.0657 111.21 68.5324 103.343 64.5324 94.0098C61.599 86.8098 57.7324 84.1432 50.5324 84.0098C45.4657 84.0098 43.8657 84.6765 40.2657 88.4098C37.8657 90.8098 35.999 93.6098 35.999 94.4098C35.999 95.3432 35.0657 97.8765 33.999 100.01C32.399 103.076 31.0657 104.01 27.999 104.01H23.999V86.6765C23.999 71.2098 23.7324 69.2098 21.7324 68.5432C20.399 68.1432 18.2657 67.2098 17.0657 66.5432C12.2657 64.0098 11.999 65.0765 11.999 85.7432ZM55.999 99.2098C58.9324 106.943 53.4657 110.676 46.6657 105.476C43.7324 103.076 43.599 102.676 45.3324 99.4765C47.7324 94.8098 54.2657 94.6765 55.999 99.2098Z" fill="black"/>
<path d="M80.6654 78.6765C73.0654 83.6099 69.8654 94.6765 73.8654 102.543C76.3988 107.343 81.8654 110.943 86.3988 110.677C92.3988 110.277 93.3321 110.543 93.3321 113.343C93.3321 115.21 91.9988 116.277 88.1321 117.343C85.3321 118.01 81.5988 118.543 79.8654 118.41C76.9321 118.01 76.6654 118.543 76.2654 123.877C75.9988 127.077 76.2654 130.143 76.9321 130.81C77.4654 131.343 81.7321 130.81 86.3988 129.61C95.3321 127.21 103.999 120.41 103.999 116.01C103.999 112.143 107.465 110.277 112.665 111.21C116.265 111.877 118.532 111.477 122.132 109.343C127.732 105.877 130.265 100.277 130.799 90.0099C131.465 80.1432 129.465 78.4099 122.265 82.6765C117.332 85.6099 117.199 86.0099 117.999 90.9432C119.199 97.3432 117.199 100.01 111.199 100.01C106.132 100.01 103.999 97.3432 103.999 90.4099C103.865 88.0099 102.932 84.8099 101.599 83.3432C95.3321 75.7432 87.8654 74.1432 80.6654 78.6765ZM93.4654 90.9432C96.9321 95.2099 96.6654 98.5432 92.6654 100.01C85.0654 102.943 79.5988 96.2765 84.9321 90.4099C87.8654 87.2099 90.3988 87.3432 93.4654 90.9432Z" fill="black"/>
</svg>
