<svg width="25" height="25" viewBox="0 0 25 25" fill="none" xmlns="http://www.w3.org/2000/svg">
<path d="M19.9999 9.75C20.4999 11.5 18.7249 12.075 17.9999 12.25C16.9999 12.5 15.4999 10.5 15.4999 10.5L10.7499 11L14.4999 14C15.2499 15 17.4999 17 16.7499 21.25L16.9999 22.5H17.4999L17.7499 24.5H5.24994L5.49994 22.5H5.99994L6.24994 21.25H6.99994C6.99994 21.25 7.74994 19.5 6.74994 17C5.74994 14.5 4.99994 11.75 5.24994 9.75C5.49994 7.75 8.24994 4.25 10.7499 4.25C13.2499 4.25 14.9999 4.5 15.7499 5.5C16.4999 6.5 19.9999 9.75 19.9999 9.75Z" fill="#637381" fill-opacity="0.4"/>
<path d="M16.75 21.25C6.25 21.25 6.25 21.25 6.25 21.25L6 22.5H17L16.75 21.25ZM10 13.75C11.25 16.75 11.3 18.975 11.5 19.75C11.75 20.75 14.075 21.225 13.75 19.5C13 15.5 10.5 14.25 10 13.75ZM15.5 19.75C15.5 20.25 16 20.75 16.75 20.5C17.5 20.25 16.5 18 15.5 16.5C14.5 15 11.75 13 10.25 12.5C12.25 14.25 14.25 15.75 15.5 19.75ZM20 10C20 9 20 9 18 7.5C16.875 6.65 16.25 6.25 16 5.5C16 4.75 13.825 4.1 12.75 3.75L12.5 0.75C12.5 0.75 10.75 2.25 10.75 3C10.75 3.75 10.75 3.75 10.75 3.75C10.75 3.75 6.5 4.25 6 9.75C6 9.75 7.75 5.5 10.5 5.25C12.25 5.1 12.75 6.25 13.75 6.5C14.75 6.75 13.275 5.425 14.25 5.25C15.75 5 16.275 6.05 15.5 6.25C14.5 6.5 14.75 7 15.25 7C16.275 7 16.25 7.5 16.75 8.25C17.25 9 19.25 10 20 10Z" fill="#637381" fill-opacity="0.2"/>
<path d="M17.7501 11.75C16.5001 10.75 15.7501 9.75 15.0001 10C13.9501 10.35 10.7501 10.5 10.2501 9.75C9.25009 8.25 9.25009 8.225 9.25009 10C9.25009 11.75 9.75009 11.75 11.7501 12.5C13.7501 13.25 14.5001 14 14.5001 14C14.2501 12.75 12.5001 12 12.0001 11.5C11.5001 11 13.5001 11.25 14.7501 10.75C15.9251 10.275 16.5001 12.25 17.2501 12.25C18.2751 12.25 17.7501 11.75 17.7501 11.75ZM10.7501 3C10.7501 3 6.25009 3 5.25009 9.75L5.75009 10.5C5.75009 10.5 6.25009 4.5 10.7501 3.75V3ZM13.5001 4L12.7501 3.75V3H14.0001L13.5001 4ZM15.7501 5.75C15.0001 6.25 14.5001 5.75 14.5001 5.75C15.0001 5 15.7501 5.75 15.7501 5.75Z" fill="#637381"/>
</svg>
