<svg width="291" height="291" viewBox="0 0 291 291" fill="none" xmlns="http://www.w3.org/2000/svg">
<g clip-path="url(#clip0_229_72)">
<path d="M117.189 18.75H159.376L173.438 42.188V131.25L187.501 112.5V37.5L168.751 4.68799H135.939L117.189 9.37499V18.75Z" fill="transpernt"/>
<path d="M267.188 112.5H201.563V121.875H267.188V112.5Z" fill="transpernt"/>
<path d="M257.813 32.813H210.938V51.563H257.813V32.813Z" fill="transpernt"/>
<path d="M243.751 18.75H225.001V75H243.751V18.75Z" fill="transpernt"/>
<path d="M56.251 131.25C61.4286 131.25 65.626 127.053 65.626 121.875C65.626 116.697 61.4286 112.5 56.251 112.5C51.0733 112.5 46.876 116.697 46.876 121.875C46.876 127.053 51.0733 131.25 56.251 131.25Z" fill="transpernt"/>
<path d="M285.095 257.813L282.583 245.255C281.42 239.442 278.064 234.427 272.903 230.986C270.691 229.514 269.12 227.391 268.173 225H276.564V215.625H267.189H265.853C261.451 202.636 258.766 186.6 258.001 168.75H267.189V159.375H257.814V150H267.189V140.625H261.405L269.871 126.511C271.183 124.327 271.877 121.823 271.877 119.278V98.438C271.877 90.685 265.568 84.375 257.814 84.375H253.127V70.313H248.439V56.25H262.501V28.125H248.439V14.063H220.314V28.126H206.251V56.25H220.313V70.313H215.625V84.376H210.937C203.184 84.376 196.875 90.685 196.875 98.439V119.28C196.875 121.825 197.569 124.328 198.881 126.518L207.347 140.627H201.563V150H210.938V159.375H201.563V168.75H210.75C209.986 186.6 207.3 202.636 202.898 215.625H201.562H192.187V225H200.564C199.598 227.409 197.977 229.57 195.623 231.141C190.687 234.432 187.326 239.443 186.164 245.26L183.656 257.813H178.125V290.626H290.625V257.813H285.095ZM215.626 46.875V37.5H229.688V23.438H239.063V37.5H253.125V46.875H239.063V70.313H229.688V46.875H215.626ZM225.001 79.688H243.751V84.376H225.001V79.688ZM206.251 119.278V98.438C206.251 95.855 208.356 93.75 210.938 93.75H215.626H253.126H257.813C260.396 93.75 262.501 95.855 262.501 98.438V119.279C262.501 120.127 262.271 120.962 261.831 121.693L250.473 140.626H218.284L206.922 121.693C206.481 120.961 206.251 120.127 206.251 119.278ZM220.313 150H248.438V159.375H220.313V150ZM220.131 168.75H248.622C249.344 186.277 251.838 202.284 255.963 215.625H212.787C216.92 202.284 219.409 186.277 220.131 168.75ZM195.362 247.097C196.037 243.736 197.978 240.839 201.053 238.791C205.919 235.547 209.242 230.588 210.442 225.005H258.311C259.52 230.593 262.881 235.58 267.925 238.946C270.775 240.844 272.716 243.741 273.391 247.102L275.533 257.813H193.221L195.362 247.097ZM281.251 281.25H187.501V267.187H281.251V281.25Z" fill="#333333"/>
<path d="M239.063 112.5H229.688V121.875H239.063V112.5Z" fill="#333333"/>
<path d="M257.813 112.5H248.438V121.875H257.813V112.5Z" fill="#333333"/>
<path d="M220.313 112.5H210.938V121.875H220.313V112.5Z" fill="#333333"/>
<path d="M114.085 66.787L98.4389 82.434V113.798L108.911 131.25H103.127V140.625H111.504C110.538 143.034 108.917 145.195 106.563 146.766C101.627 150.057 98.2659 155.068 97.1039 160.885L94.5959 173.438H89.0649V206.251H201.565V173.438H196.034L193.522 160.88C192.359 155.067 189.003 150.052 183.842 146.611C181.63 145.139 180.059 143.016 179.112 140.625H187.503V131.25H181.719L192.191 113.798V36.253L171.47 0H135.939L112.501 5.714V14.906L91.0739 19.19L74.3589 41.484L86.0779 70.786L114.085 66.787ZM192.188 196.875H98.4379V182.812H192.188V196.875ZM178.862 154.566C181.712 156.464 183.653 159.361 184.328 162.722L186.47 173.438H104.158L106.3 162.722C106.975 159.361 108.916 156.464 111.991 154.416C116.857 151.177 120.18 146.213 121.38 140.63H169.249C170.457 146.217 173.823 151.205 178.862 154.566ZM96.4279 27.684L121.876 22.593V13.035L127.178 11.708L131.748 20.844L140.134 16.649L136.496 9.374H136.515H148.182L145.552 17.268L154.444 20.235L158.067 9.374H166.031L172.345 20.422L162.581 23.675L165.548 32.567L177.089 28.719L182.812 38.746V43.494L171.956 47.113L174.923 56.005L182.812 53.38V70.311H173.437V79.686H182.812V93.75H173.437V103.125H182.812V111.202L170.784 131.25H119.84L111.403 117.187H150.001V107.812H107.814V86.316L126.564 67.566V55.533L92.0499 60.464L85.0189 42.891L96.4279 27.684Z" fill="#333333"/>
<path d="M168.751 107.813H159.376V117.188H168.751V107.813Z" fill="#333333"/>
<path d="M135.939 28.125H126.564V37.5H135.939V28.125Z" fill="#333333"/>
<path d="M104.457 245.255C103.295 239.442 99.938 234.427 94.777 230.986C92.565 229.514 90.994 227.391 90.047 225H98.438V215.625H89.063H87.727C83.325 202.636 80.64 186.6 79.875 168.75H89.062V159.375H79.687V144.797C85.476 138.877 89.062 130.791 89.062 121.875C89.062 103.781 74.343 89.062 56.25 89.062C38.157 89.062 23.438 103.781 23.438 121.875C23.438 130.791 27.024 138.877 32.813 144.797V159.375H23.438V168.75H32.625C31.861 186.6 29.175 202.636 24.773 215.625H23.437H14.062V225H22.439C21.473 227.409 19.852 229.57 17.498 231.141C12.562 234.432 9.20098 239.443 8.03898 245.26L5.53098 257.813H0.000976562V290.626H112.501V257.813H106.97L104.457 245.255ZM56.251 98.438C69.174 98.438 79.688 108.952 79.688 121.876C79.688 134.8 69.174 145.314 56.251 145.314C43.328 145.314 32.814 134.8 32.814 121.876C32.814 108.952 43.328 98.438 56.251 98.438ZM42.189 151.477C46.459 153.516 51.212 154.688 56.251 154.688C61.29 154.688 66.043 153.516 70.313 151.477V159.375H42.189V151.477ZM42.006 168.75H70.497C71.219 186.277 73.713 202.284 77.838 215.625H34.665C38.795 202.284 41.284 186.277 42.006 168.75ZM17.237 247.097C17.912 243.736 19.853 240.839 22.928 238.791C27.794 235.547 31.117 230.588 32.317 225.005H80.186C81.395 230.593 84.756 235.58 89.8 238.946C92.65 240.844 94.591 243.741 95.266 247.102L97.408 257.813H15.095L17.237 247.097ZM103.126 281.25H9.37598V267.187H103.126V281.25Z" fill="#333333"/>
</g>
<defs>
<clipPath id="clip0_229_72">
<rect width="290.626" height="290.626" fill="transpernt"/>
</clipPath>
</defs>
</svg>
