<svg width="800" height="800" viewBox="0 0 800 800" fill="none" xmlns="http://www.w3.org/2000/svg">
<g clip-path="url(#clip0_174_72)">
<path d="M254.695 184.787H539.82C546.4 184.787 552.979 192.464 554.624 202.334L624.809 750.651C625.147 752.939 624.964 755.273 624.274 757.48C623.583 759.688 622.403 761.71 620.822 763.397C619.24 765.084 617.298 766.392 615.14 767.223C612.982 768.055 610.664 768.388 608.359 768.198H187.251C184.991 768.302 182.736 767.905 180.647 767.036C178.558 766.167 176.686 764.847 175.167 763.171C173.648 761.494 172.518 759.503 171.858 757.338C171.198 755.174 171.025 752.891 171.35 750.651L242.083 202.334C243.18 192.464 249.76 184.787 254.695 184.787Z" fill="#637381" fill-opacity="0.6"/>
<path d="M149.417 733.654H654.418V799.452H149.417V733.654Z" fill="#637381"/>
<path d="M242.631 338.316H555.172C564.311 338.316 569.246 336.854 569.977 333.93L654.966 195.206C654.966 195.206 640.71 184.239 629.744 184.239H166.415C155.449 184.239 148.321 192.464 149.966 195.206L223.988 328.995C226.051 332.608 229.368 335.34 233.31 336.671L242.631 338.316Z" fill="#637381"/>
<path opacity="0.5" d="M567.784 0.00438854H619.326C623.882 -0.0697209 628.408 0.77316 632.632 2.48292C636.857 4.19268 640.694 6.73441 643.917 9.957C647.14 13.1796 649.681 17.0173 651.391 21.2418C653.101 25.4664 653.944 29.9916 653.87 34.5484V202.882C653.942 207.392 653.117 211.872 651.441 216.06C649.765 220.248 647.273 224.061 644.109 227.276C640.944 230.491 637.172 233.044 633.011 234.787C628.851 236.529 624.385 237.427 619.874 237.426H181.22C176.547 237.649 171.877 236.92 167.495 235.284C163.112 233.648 159.107 231.139 155.723 227.909C152.339 224.679 149.646 220.795 147.808 216.493C145.97 212.191 145.025 207.56 145.031 202.882V34.5484C145.031 25.3868 148.67 16.6004 155.148 10.1221C161.627 3.64384 170.413 0.00438854 179.575 0.00438854H234.407V92.6701C234.358 95.2082 234.879 97.7248 235.931 100.035C236.983 102.346 238.539 104.391 240.485 106.021C242.431 107.652 244.717 108.825 247.176 109.456C249.635 110.087 252.204 110.16 254.694 109.668H298.56C303.068 109.668 307.391 107.877 310.579 104.689C313.767 101.502 315.558 97.1782 315.558 92.6701V0.00438854H486.633V92.6701C486.633 97.1782 488.424 101.502 491.611 104.689C494.799 107.877 499.122 109.668 503.631 109.668H550.238C554.746 109.668 559.069 107.877 562.257 104.689C565.445 101.502 567.235 97.1782 567.235 92.6701L567.784 0.00438854Z" fill="#9CA6AE"/>
</g>
<defs>
<clipPath id="clip0_174_72">
<rect width="800" height="800" fill="white"/>
</clipPath>
</defs>
</svg>
