<svg width="284" height="207" viewBox="0 0 284 207" fill="none" xmlns="http://www.w3.org/2000/svg">
<path d="M266.435 0.986025C266.435 1.74453 247.017 15.3976 244.287 16.5353C243.604 16.8387 232.151 24.3479 228.889 26.5476C227.675 27.4578 223.883 29.9609 220.545 32.0847C217.208 34.2085 210.685 38.4561 205.982 41.4901C201.279 44.5241 197.259 47.0272 196.956 47.0272C196.653 47.0272 194.68 48.3166 192.557 49.9095C190.433 51.5023 187.854 53.3228 186.792 53.8537C184.668 54.9915 176.932 59.9217 161.382 70.1615C133.545 88.5173 128.008 92.3098 127.78 93.5234C127.477 95.1921 134.91 104.901 139.158 108.314C140.675 109.528 142.42 108.694 153.797 101.26C157.969 98.6054 164.265 94.5853 167.829 92.3857C171.394 90.2619 178.221 85.9384 183 82.7527C187.778 79.6428 193.922 75.6986 196.653 73.954C199.383 72.2095 205.148 68.417 209.547 65.5347C213.946 62.7282 218.27 59.9217 219.18 59.4666C220.09 58.9357 221.607 57.9496 222.593 57.3428C223.579 56.6602 228.282 53.5503 233.061 50.4404C237.839 47.4064 243.301 43.8415 245.197 42.552C247.093 41.2626 252.858 37.3942 258.091 33.9051C263.325 30.4918 268.255 27.0785 269.09 26.3959C269.924 25.6374 271.82 24.2721 273.261 23.3619C278.723 19.7211 283.88 9.70881 283.88 2.73058V-2.95367e-05H275.158C268.483 -2.95367e-05 266.435 0.227521 266.435 0.986025Z" fill="black"/>
<path d="M256.498 50.7438C254.147 52.2608 248.913 55.5224 244.893 58.0255C237.839 62.4248 224.49 71.0717 213.795 78.1258C210.988 80.0221 208.106 81.9183 207.423 82.2976C204.389 84.1938 163.506 111.5 162.141 112.562C161.306 113.245 158.727 114.989 156.452 116.506C154.176 118.023 151.597 119.919 150.839 120.678C149.398 121.967 149.398 122.043 151.597 124.622C152.811 126.063 155.617 129.552 157.893 132.283C160.093 135.014 162.52 137.289 163.202 137.289C163.961 137.289 166.085 136.303 168.057 135.014C170.029 133.8 171.849 132.738 172.077 132.738C172.38 132.738 173.822 131.752 175.339 130.614C176.856 129.401 178.6 128.187 179.207 127.959C179.814 127.656 182.924 125.76 186.033 123.712C189.143 121.588 193.239 119.009 195.135 117.871C197.032 116.734 201.279 114.003 204.617 111.879C207.954 109.68 213.567 106.039 217.132 103.763C220.697 101.488 225.096 98.6812 226.917 97.3918C228.737 96.1782 231.847 94.1302 233.819 92.9166C240.646 88.669 249.368 82.4493 253.464 78.9601C258.243 74.8642 260.518 71.5268 262.718 65.2312C264.159 61.0595 264.159 60.2251 263.325 54.9914C262.87 51.8816 262.035 48.9993 261.58 48.6959C261.049 48.2408 259.153 48.9993 256.498 50.7438Z" fill="black"/>
<path d="M22.576 73.9545C19.2386 74.6372 14.9152 75.6232 12.9431 76.3059C8.31618 77.8229 0.200195 83.0566 0.200195 84.5736C0.200195 85.1804 0.276046 85.7113 0.427746 85.7113C0.579447 85.7113 4.22026 85.1804 8.46788 84.5736C21.4383 82.6015 35.0914 84.5736 46.4689 90.1107C56.7087 95.0409 60.1978 97.6198 71.0444 108.087C78.9329 115.824 88.0349 126.215 89.0209 128.718C89.4002 129.705 89.9312 130.463 90.3104 130.463C90.9172 130.463 96.3026 137.821 99.9434 143.737C100.778 145.026 102.371 147.226 103.584 148.591C104.722 149.957 105.632 151.322 105.632 151.625C105.632 152.005 106.391 153.066 107.377 154.128C108.287 155.114 110.183 157.693 111.624 159.741C124.595 178.325 143.937 195.846 157.21 201.08C167.299 205.1 170.105 205.707 180.724 206.086C191.798 206.541 195.136 206.162 195.136 204.493C195.136 203.886 192.633 200.321 189.674 196.529C186.64 192.736 183.53 188.792 182.772 187.806C181.862 186.441 180.496 185.758 177.842 185.455C171.546 184.544 169.119 183.634 163.658 180.145C155.314 174.76 143.633 162.472 132.711 147.529C127.477 140.399 123.988 135.848 120.726 131.752C119.664 130.463 117.617 127.657 116.251 125.533C111.776 119.01 96.3026 101.488 89.6278 95.496C72.6373 80.1743 58.4533 73.9545 38.5805 73.196C31.5264 72.9685 26.8995 73.196 22.576 73.9545Z" fill="black"/>
<path d="M1.71701 91.9312C1.79286 92.4621 5.20612 95.1169 9.37789 97.8475C17.5697 103.157 33.7259 118.024 40.7041 126.595C42.8279 129.25 46.0136 133.194 47.7582 135.318C49.5786 137.441 52.1575 140.779 53.4469 142.675C54.8123 144.647 57.998 148.667 60.501 151.701C63.0041 154.735 65.583 157.921 66.1898 158.831C67.7068 161.107 78.6293 173.319 82.8769 177.414C85.9867 180.449 91.5238 185.075 97.2126 189.399C100.322 191.826 110.031 196.984 115.417 199.032C121.485 201.459 132.028 203.735 132.938 202.824C133.393 202.369 131.118 199.487 127.098 195.315C123.533 191.523 118.754 186.213 116.554 183.407C114.279 180.6 111.245 177.035 109.804 175.442C108.363 173.85 107.149 172.333 107.149 171.953C107.149 171.65 105.025 168.843 102.446 165.658C99.7915 162.472 93.951 155.039 89.3242 149.122C74.3058 129.629 65.9623 119.692 56.7085 110.363C46.6963 100.199 41.3109 96.7856 31.1469 93.9791C21.969 91.4002 1.64116 90.0349 1.71701 91.9312Z" fill="black"/>
<path d="M235.716 107.101C233.592 108.466 231.317 109.907 230.634 110.362C228.434 111.728 209.32 124.47 206.134 126.746C204.466 127.959 201.583 129.856 199.687 130.918C194.377 134.028 172.457 148.667 172.002 149.425C171.395 150.411 184.062 164.974 185.73 165.202C187.172 165.354 192.785 162.092 206.286 153.066C210.458 150.335 215.085 147.453 216.45 146.77C217.891 146.012 220.773 144.191 222.821 142.599C224.945 141.082 226.993 139.64 227.524 139.489C228.055 139.337 230.482 137.213 232.985 134.786C238.977 129.021 242.922 121.285 242.846 115.748C242.77 111.197 241.329 105.28 240.267 104.901C239.812 104.749 237.764 105.811 235.716 107.101Z" fill="black"/>
<path d="M206.741 168.995C199.99 173.622 195.97 176.807 195.895 177.642C195.895 179.159 197.867 182.041 206.21 192.736C215.009 203.962 213.947 203.355 222.442 202.445C230.862 201.61 246.487 200.321 248.459 200.245C250.734 200.245 249.824 197.969 245.425 192.584C242.998 189.778 240.039 186.137 238.902 184.544C226.766 168.16 221.077 161.561 219.181 161.637C218.27 161.637 212.657 164.975 206.741 168.995Z" fill="black"/>
</svg>
