<svg width="1040" height="456" viewBox="0 0 1040 456" fill="none" xmlns="http://www.w3.org/2000/svg">
<path d="M846.667 1.13337C826.667 3.40004 805.333 7.26671 790.667 11.5334C772.8 16.6 747.333 30.0667 730.133 43.4C712 57.5334 706.667 67.4 711.867 77.5334C713.733 81.1334 727.467 92.2 739.067 99.5334C746.8 104.467 747.2 106.2 741.733 112.067C737.333 116.867 732.667 125.4 732.667 128.867C732.667 129.8 731.467 132.2 730 134.067C728 136.6 725.733 137.667 721.6 137.933C716.133 138.333 716 138.467 710.933 148.333C708.133 153.8 704.933 161.533 703.867 165.533C700.933 176.333 702.667 180.2 716.533 193.667C734.133 210.733 755.333 236.867 760.133 247.533C762.533 252.733 764.4 255.667 769.067 261.8C772.933 267 773.467 270.867 771.333 277.133C770.667 279.267 769.467 286.6 768.8 293.4C766.933 310.733 765.867 312.467 755.867 314.467C751.333 315.4 745.733 317.133 743.467 318.333C738.267 321 734 327.667 734 333.133C734 337.667 737.467 347.133 739.6 348.467C742.667 350.467 739.333 354.6 728.667 361.8C711.867 373.4 708.667 376.867 708.667 383.8C708.667 391.667 712.133 397.8 722.933 408.6C744.133 430.2 774.8 443.933 824.667 453.933C836.533 456.333 902.933 456.333 916.667 453.933C925.467 452.333 941.067 448.733 958.667 444.2C961.6 443.533 964.533 442.333 965.2 441.533C966 440.867 967.333 440.333 968.4 440.333C971.067 440.333 995.067 428.6 1002 423.933C1020.67 411.267 1035.33 393.933 1035.33 384.467C1035.33 379.667 1027.6 372.333 1010.67 361C994.133 349.933 991.333 347.4 992.4 344.467C992.8 343.267 996.533 337.8 1000.8 332.2C1018.93 308.2 1032.13 282.333 1037.47 260.333C1041.07 245.667 1039.2 221.8 1033.73 212.2C1028 201.8 1021.2 197.667 1010.13 197.667C1003.07 197.667 1001.87 197.267 999.867 194.333C998.133 191.667 998 190.2 999.2 186.867C1000 184.467 1000.67 175 1000.67 165.8C1000.67 148.2 998.4 136.333 992.667 123.533C991.2 120.067 990 117 990 116.6C990 116.2 997.733 108.067 1007.07 98.4667C1027.07 78.0667 1028.67 76.0667 1028.67 69.5334C1028.67 57.6667 1005.6 37.1334 976.667 23.4C950.4 10.8667 941.067 7.93338 914 3.53337C901.6 1.66671 857.333 0.066708 846.667 1.13337ZM923.467 10.8667C930.533 12.4667 941.067 15.2667 946.8 17.1334C959.2 21.2667 985.067 33.8 996.133 41.1334C1005.6 47.2667 1018.13 59.4 1021.2 65.4C1024.4 71.5334 1022.8 73.6667 1000.8 95.6667C990.4 105.933 982 115.267 982 116.333C982 117.533 983.2 121.133 984.8 124.333C993.733 142.733 996.8 176.333 990.8 188.2C989.467 190.6 988.667 193 988.933 193.667C989.2 194.2 992 196.867 995.067 199.533C1000.67 204.067 1001.47 204.333 1010.67 204.333C1020.4 204.333 1020.4 204.333 1024.4 209.4C1031.6 218.467 1033.33 224.6 1033.33 241.667C1033.33 253.133 1032.67 258.6 1030.8 263.667C1025.33 278.467 1019.87 290.867 1014.4 300.067C1011.2 305.533 1008.67 310.067 1008.67 310.333C1008.67 311.4 1000 323.8 995.333 329.667C988.667 337.933 984.667 344.867 984.667 348.067C984.667 349.933 988.533 353.267 998.267 359.933C1013.6 370.067 1012.13 369.133 1021.73 376.333C1026.8 380.333 1028.67 382.6 1028.67 385C1028.67 389.667 1023.73 397 1014.4 405.8C990.933 428.6 950.667 444.6 906 449C844 455.267 790.267 445.667 747.467 421C734.667 413.533 718.133 396.733 715.333 388.333C713.733 383.4 713.733 382.6 716.267 379.267C717.733 377.4 726.133 370.867 735.067 365C743.867 359.133 751.2 353.933 751.2 353.4C751.333 352.867 749.467 350.467 747.2 348.2C741.067 341.933 738.8 335.8 740.667 330.333C742.4 325 749.467 320.333 755.733 320.333C760.533 320.2 769.733 318.333 771.067 317.133C771.467 316.6 772.267 312.467 772.8 307.933C774.133 297 777.867 272.6 778.8 268.2C779.333 265.533 778.667 263.667 775.733 260.467C773.467 258.2 769.067 251.267 765.6 245.267C762.267 239.267 756.667 230.733 753.067 226.2C732.267 200.067 727.067 193.667 725.867 193.667C725.2 193.667 721.067 189.933 716.667 185.4C706.667 175.133 706.4 172.067 714 155.8L719.467 144.333H725.867C733.467 144.333 734.933 145.667 744 160.733C750.4 171.4 774 196.333 777.6 196.333C779.867 196.333 781.867 194.467 785.2 189.4C787.2 186.2 787.467 184.733 786.267 179.4C785.467 175.8 784.4 170.333 783.867 167C783.467 163.667 782.267 157.933 781.333 154.333C776.4 135.4 772.667 122.6 772.133 122.067C771.733 121.667 768.533 123.8 764.933 126.867C758.667 132.2 758.133 132.333 748.933 132.333C743.733 132.333 739.2 131.8 738.8 131.133C737.333 128.867 742 120.6 748.667 113.533C752.267 109.667 755.333 105.667 755.333 104.733C755.333 103.8 751.067 100.2 745.867 96.6C727.733 84.6 725.467 83 721.6 79.4C713.733 71.8 714.4 65.8 724.4 55.5334C736.533 43 768.533 25 791.733 17.5334C818 9.00004 834.8 7.13338 877.333 7.66671C904.667 8.06671 912.933 8.60004 923.467 10.8667ZM769.867 135.933C771.333 139 774.933 152.733 777.6 165.667C780.4 178.867 780.533 187.267 778.133 188.067C776 188.733 752.933 165.533 750 159.667C747.2 154.2 740.8 144.6 739.2 143.533C736 141.667 741.2 139 748.533 138.867C752.8 138.867 758.267 137.8 761.333 136.333C768.133 133.267 768.267 133.133 769.867 135.933Z" fill="#006533"/>
<path d="M851.334 13.1331C813.6 16.7331 777.467 28.5997 750.8 46.3331C739.334 54.0664 724.667 66.9997 724.667 69.3997C724.667 70.3331 732.267 76.5997 741.734 83.6664C751.067 90.5997 759.334 96.8664 760.267 97.6664C763.067 100.066 766.134 99.1331 773.067 93.9331C784.4 85.6664 791.867 81.9331 808.667 76.3331C830.534 69.1331 839.2 67.7997 866.667 67.9331C885.867 67.9331 894.534 68.4664 902.667 70.3331C919.6 74.0664 930.667 77.6664 939.734 82.3331C941.867 83.3997 944.134 84.3331 944.8 84.3331C946.667 84.3331 960.667 93.9331 968 100.333C975.2 106.6 974.934 106.6 986.934 95.3997C1007.87 75.6664 1012.67 70.5997 1012.67 68.4664C1012.67 64.7331 993.334 48.3331 981.334 41.7997C978.4 40.1997 975.067 38.3331 974 37.6664C970 34.9997 949.2 26.3331 938.667 22.9997C917.467 16.0664 873.334 11.1331 851.334 13.1331ZM869.6 23.2664C876.534 29.6664 871.734 35.1331 860.934 32.9997C852.534 31.3997 836.267 32.3331 833.734 34.5997C832.534 35.6664 829.067 36.8664 826.134 37.2664C821.334 37.9331 820.667 37.6664 820 34.8664C819.6 32.9997 819.734 30.0664 820.4 28.3331C821.467 25.3997 822.934 24.7331 834.134 22.8664C841.067 21.6664 851.067 20.5997 856.534 20.4664C865.067 20.3331 866.934 20.7331 869.6 23.2664ZM909.2 25.9331C911.2 27.6664 913.067 30.9997 913.6 33.5331L914.4 38.0664L908 37.2664C904.534 36.7331 900.134 36.3331 898.4 36.3331C896.667 36.3331 894.934 35.3997 894.4 34.1997C893.6 32.0664 896.267 25.7997 898.667 24.0664C901.2 22.1997 905.867 22.9997 909.2 25.9331ZM813.467 31.5331C813.867 33.3997 814 35.9331 813.734 37.2664C813.2 39.9331 804 44.8664 802 43.6664C801.2 43.1331 800.667 40.3331 800.667 37.1331C800.667 32.4664 801.2 31.1331 803.734 29.9331C808.934 27.3997 812.534 28.0664 813.467 31.5331ZM796.667 39.6664V45.3997L777.734 54.7331C767.334 59.9331 758.267 63.7997 757.734 63.5331C757.2 63.1331 756.667 60.5997 756.667 57.7997C756.667 53.6664 757.334 52.1997 760.4 50.1997C766.8 45.9331 794.534 32.4664 795.6 33.1331C796.267 33.5331 796.667 36.4664 796.667 39.6664ZM947.734 35.6664C950.267 36.7331 952.667 38.7331 953.067 40.3331C953.6 42.4664 954.8 42.9997 959.067 42.9997C964.267 42.9997 971.334 46.9997 971.334 49.9331C971.334 52.5997 967.067 56.3331 964.134 56.3331C962.534 56.3331 957.6 54.4664 952.934 52.0664C946.267 48.5997 944.134 46.5997 942 42.3331C937.6 33.2664 938.8 31.9331 947.734 35.6664ZM870.8 40.8664C873.334 42.8664 873.334 42.8664 870.4 45.7997C868.134 48.0664 865.2 48.8664 855.067 49.7997C833.867 51.7997 832.667 52.3331 832.667 59.9331C832.667 63.6664 832.134 64.3331 827.734 65.5331C823.467 66.7331 822.4 66.5997 821.067 64.7331C819.067 62.1997 818.8 48.5997 820.534 45.7997C822 43.6664 831.067 41.6664 846.667 40.4664C865.6 38.8664 868 38.8664 870.8 40.8664ZM908 42.8664L918.667 45.1331L923.6 54.3331C930.534 67.3997 930.267 70.4664 922.134 68.8664C918.934 68.1997 917.067 66.4664 914 60.9997C911.6 56.8664 908.8 53.6664 906.934 53.1331C900.4 51.3997 898.134 52.1997 894.534 57.6664C891.6 62.0664 890.267 62.9997 886.534 62.9997C879.734 62.9997 878.667 59.5331 882.934 51.5331C889.467 39.1331 890 38.8664 908 42.8664ZM813.334 50.0664C813.867 51.7997 814 56.4664 813.734 60.4664C813.334 67.3997 813.2 67.7997 808.134 70.0664C802 72.9997 800.667 72.0664 799.734 64.0664C798.8 55.6664 800.8 49.2664 804.8 48.1997C810.667 46.4664 812.534 46.8664 813.334 50.0664ZM956 58.4664C962.134 61.2664 968.667 67.3997 968.667 70.1997C968.667 70.5997 970.534 74.8664 972.8 79.6664C977.734 90.0664 977.334 93.6664 971.734 90.1997C965.467 86.3331 960.934 81.5331 960 78.0664C959.6 76.1997 958.267 73.2664 957.067 71.3997L954.934 68.0664L951.734 72.1997C949.867 74.4664 947.334 76.3331 946 76.3331C942.667 76.3331 934 72.1997 934 70.5997C934 69.1331 942 57.2664 943.867 56.0664C946.267 54.3331 948.534 54.8664 956 58.4664ZM782.534 61.1331C783.6 64.0664 783.467 76.7331 782.267 78.4664C780.4 81.1331 774.667 84.3331 771.734 84.3331C768.8 84.3331 768.667 83.7997 768.667 74.5997C768.667 66.8664 769.2 64.3331 771.067 62.7331C775.6 58.7331 781.334 57.9331 782.534 61.1331Z" fill="#006533"/>
<path d="M860.133 74.8667C866.133 76.3333 867.333 77.4 867.333 81.2667C867.333 84.4667 867.066 84.6 865.066 82.7333C861.6 79.9333 858.8 81.1333 854.666 87C852.666 89.8 850.266 92.4667 849.2 92.8667C848.133 93.2667 847.333 94.6 847.333 95.9333C847.333 97.2667 845.866 100.067 844 102.2C840.666 106.067 840.666 108.333 844 108.333C846.133 108.333 857.866 100.2 863.466 94.8667C868.266 90.3333 870.933 89.4 871.866 91.8C874.266 97.9333 870.666 102.467 860 107C848.533 111.8 846.8 112.867 843.733 115.533C839.733 119 839.866 121.533 844.533 126.067C847.6 129 848.533 131.267 849.2 138.2C850.133 148.2 849.2 151.533 843.066 157.133C837.066 162.867 833.066 164.733 829.066 163.8C826.8 163.133 824 164.067 819.2 167.133C813.6 170.867 812.666 172.067 812.666 175.8C812.666 179.533 812.133 180.067 808.133 180.867C801.733 182.067 796.4 179.8 796.933 176.067C797.2 174.2 798.533 172.867 800.666 172.333C804.666 171.4 805.733 167.667 802.666 164.333C801.333 162.867 800.8 160.867 801.333 158.733C802.133 155.667 795.066 139 789.066 129.533C786.933 126.067 786.933 125.933 790.8 122.467C792.933 120.6 795.333 119 796.133 119C796.933 119 798.533 116.6 799.733 113.667C802.533 106.467 806.4 106.467 812.4 113.667C814.666 116.467 816.666 119.667 816.666 120.733C816.666 121.8 817.866 123.667 819.333 125C820.8 126.333 822 127.933 822 128.6C822 129.267 823.2 131 824.666 132.6L827.333 135.533V132.6C827.333 131.133 826.8 129.4 826 129C823.733 127.667 824.533 125.667 827.866 124.2C830.533 122.867 831.2 121.4 832 114.6C832.8 107.933 834 105.133 838.533 99C845.333 89.9333 849.066 83 847.333 83C846.666 83 846 83.6667 846 84.3333C846 86.7333 831.2 100.333 828.666 100.333C827.2 100.333 824.133 99.5333 821.733 98.4667C808.4 92.8667 791.866 90.7333 784.133 93.6667C780.266 95.1333 751.333 121.133 751.333 123.133C751.333 126.2 756.8 123.667 765.333 116.333C779.733 104.067 788.8 100.467 794.8 104.867C797.2 106.733 797.2 106.867 793.6 108.2C791.466 109 788.933 109.667 787.866 109.667C785.066 109.667 785.6 111.933 788.8 112.733C791.333 113.4 791.466 113.667 789.333 117.667C787.066 121.933 784.666 121.933 784.666 117.533C784.666 116.2 784.133 115 783.333 115C782.666 115 782 117.533 782 120.6C782 126.067 782.4 127.667 786.4 141C787.6 144.6 789.466 153 790.666 159.667C791.866 166.2 793.866 175 794.933 179.133C796.133 183.267 796.8 187.267 796.533 188.067C795.333 191.667 783.733 204.333 781.066 205.133C775.866 206.6 772.133 204.067 757.2 189.133C747.333 179.133 740.666 171 736.666 164.333C728 149.267 726.533 149 720.666 161C715.6 171.4 715.733 175.4 721.333 176.333C724.4 177 725.2 177.667 725.066 179.933C724.8 181.933 726.4 184.2 730.133 187.133C733.066 189.4 738.933 195.667 743.066 200.867C747.2 206.067 750.933 210.6 751.333 211C754.4 213.667 769.2 234.733 773.333 242.333C778 251 782.266 256.333 784.8 256.333C787.733 256.333 788.4 261.533 786.666 270.333C784.133 284.333 780.666 308.467 780.666 312.733C780.666 321.8 772.933 328.333 762.266 328.333C752.4 328.333 748.666 330.067 748.666 334.733C748.666 340.2 756.8 347 763.333 347C764.8 347 768.933 345.533 772.4 343.8C775.866 342.067 781.466 340.2 785.066 339.667C792.133 338.733 794.266 335.933 796 326.333C797.333 319 804.4 298.333 808.266 290.6C810 287.133 813.6 281.8 816.4 278.733L821.333 273.267L835.333 274.067C857.466 275.133 883.466 271 907.333 262.333C912.133 260.6 920.266 257.667 925.333 255.8C930.533 253.933 937.2 252.333 940.266 252.333C948.4 252.333 952.133 250.467 956.666 244.2C960.133 239.267 962.133 232.333 959.866 232.333C959.466 232.333 956.8 234.067 954 236.333C949.466 239.933 948 240.333 939.6 240.333C932 240.333 929.866 240.733 928.8 242.6C927.733 244.6 926.933 244.733 923.066 243.267C920.533 242.467 916.933 241.667 914.933 241.667C912.8 241.667 910.666 240.6 909.733 239C908.8 237.533 907.333 236.333 906.4 236.333C903.066 236.333 904.4 226.6 908.133 222.6C912.666 217.667 915.333 218.467 918.933 225.533C920.666 228.867 922.666 231.933 923.466 232.467C924.4 233 924.666 234.733 924.266 236.333C923.333 239.933 927.066 241.8 928.933 238.6C929.866 236.867 932 236.333 937.866 236.333C943.2 236.333 946.266 235.667 947.333 234.333C948.266 233.267 949.466 232.333 950.133 232.333C951.733 232.333 956.666 227.267 956.666 225.667C956.666 223.533 954 224.067 953.2 226.333C952.666 227.4 951.6 228.333 950.666 228.333C949.733 228.333 948.266 229.267 947.333 230.333C944.8 233.4 931.466 233 927.733 229.8C924.266 226.867 923.733 222.733 926.666 220.333C928.4 219 928.4 218.333 926.8 216.067C923.2 211 925.6 209.533 932.4 212.733C935.866 214.2 942.8 215.8 948 216.2C956.4 217 957.333 217.267 958.133 220.333C958.933 223.4 959.066 223.4 959.2 220.733C959.333 217.933 961.733 216.067 969.6 212.467C973.466 210.733 976.133 206.2 977.333 199.667C977.866 196.733 979.733 192.467 981.466 190.067C984.666 185.933 985.733 180.333 983.466 180.333C982.8 180.333 981.866 181.933 981.466 183.8C979.2 192.333 968.266 194.733 955.6 189.533C948.4 186.6 946.266 183.4 948.533 179.4C949.6 177.4 951.6 177 960.266 177C968.266 177 971.733 176.333 975.066 174.333C979.333 171.8 979.6 171.8 981.2 173.933C982.133 175.267 983.333 176.333 983.733 176.333C985.6 176.333 984.4 155.267 982.133 148.333C980.8 144.333 978.933 138.6 978 135.667C977.066 132.733 974.933 128.467 973.333 126.333C971.6 124.067 969.866 120.867 969.333 119C968.133 115 962.266 108.333 959.866 108.333C958.933 108.333 956 105.667 953.2 102.333C949.6 97.9333 947.466 96.3333 944.666 96.3333C942.666 96.3333 940 95.1333 938.533 93.5333C934 88.4667 928.933 85.6667 923.066 84.8667C919.866 84.3333 916.8 83.1333 916.266 82.2C915.733 81.1333 913.466 80.3333 911.2 80.3333C909.066 80.3333 905.866 79.4 904 78.2C899.066 75 890.266 76.2 886.933 80.6C883.066 85.9333 884.933 89.5333 895.333 97.2667C906.4 105.533 912 113 913.2 121C915.466 135.933 909.066 150.6 893.333 166.467C877.333 182.6 862.266 189.667 846.4 188.467C845.466 188.333 844.666 186.867 844.666 184.867C844.666 182.2 845.733 181.133 849.733 179.533C881.6 166.867 899.333 148.2 899.333 127.267C899.333 122.867 898.533 117.933 897.6 116.2C893.866 109.133 890.8 105.533 886.133 102.733C880.666 99.4 876.666 95.6667 876.666 93.8C876.666 90.4667 870.8 77.6667 869.2 77.6667C868.133 77.6667 867.333 76.7333 867.333 75.6667C867.333 74.2 865.866 73.6667 861.733 73.8C856.266 73.9333 856.266 73.9333 860.133 74.8667ZM901.2 83.6667C904.666 86.8667 906.266 95 903.333 95C900.266 95 893.866 90.7333 892.8 87.9333C890.133 80.6 895.066 77.9333 901.2 83.6667ZM917.866 89.1333C920.666 93.9333 921.866 105.667 919.466 105.667C916.8 105.667 908.933 94.7333 908.4 90.2C907.733 84.8667 908.133 84.3333 912.133 84.3333C914.133 84.3333 916 85.9333 917.866 89.1333ZM928.666 89.2667C928.666 89.9333 930.533 91.4 932.666 92.6C936.133 94.6 936.666 95.6667 936.666 100.733C936.666 110.467 927.466 125.667 922.666 123.8C920.8 123.133 920.533 121.667 921.2 115.267C921.6 111.133 922.266 104.067 922.666 99.6667C923.066 95.2667 923.733 90.8667 924 89.9333C924.666 88.2 928.666 87.6667 928.666 89.2667ZM946.933 101.933C950.4 105.8 952.666 110.2 952.666 113C952.666 116.467 946.266 123.933 942.533 124.867C936.266 126.467 935.2 123.933 938.133 113.933C939.466 109 940.666 103.667 940.666 102.067C940.666 98.2 943.466 98.2 946.933 101.933ZM962 119C967.2 129.133 965.2 134.467 954.533 139.267C951.333 140.6 948.666 142.333 948.4 143C948.133 143.667 946.533 144.467 944.666 144.6C941.866 145 941.2 144.333 940.933 141.133C940.133 134.733 941.866 131.133 947.066 127.8C950.133 125.933 953.066 122.467 954.533 119.133C956 116.2 957.6 113.667 958.133 113.667C958.8 113.667 960.533 116.067 962 119ZM973.2 134.6C974.266 138.6 974.4 144.867 973.466 148.333C972.4 152.467 962.8 156.333 954.133 156.333C948 156.333 946.533 154.6 947.866 149C948.8 145.533 949.2 145.133 955.733 143.8C957.733 143.267 961.6 140.6 964.4 137.667C969.733 131.8 972.133 131.133 973.2 134.6ZM980.666 158.067C980.666 166.6 973.733 172.333 963.2 172.333C957.866 172.333 948.666 168.067 948.666 165.667C948.666 163.4 954.666 160.333 959.066 160.333C963.466 160.333 973.066 156.2 974.666 153.667C975.066 153 976.666 152.333 978.133 152.333C980.266 152.333 980.666 153.267 980.666 158.067ZM951.066 193.267C953.733 194.467 959.6 195.8 964 196.2C973.6 197.133 974.4 198.867 968.666 206.733L964.666 212.333H954.666C942 212.333 928.666 208.733 928.666 205.267C928.666 203.8 930.4 202.067 933.066 201C935.333 200.067 938.933 197.4 940.933 195.133C945.066 190.333 944.666 190.333 951.066 193.267ZM840.533 201.267C844.266 205.8 844.4 206.467 842.666 209C841.6 210.467 839.733 213 838.533 214.733C837.2 216.6 836.266 220.733 836.133 225.4C836 232.333 836.266 233 838.933 233.4C840.666 233.667 842.8 235.133 843.866 236.6C845.733 239.267 845.866 239.267 850.533 235.667C853.066 233.667 856.266 232.333 857.466 232.6C858.666 232.867 861.2 235.8 862.933 239.267C864.933 243.133 867.2 245.667 868.533 245.667C872.4 245.667 872.666 244.2 869.733 240.333C868.266 238.333 867.333 235.533 867.6 234.2C868 232.2 869.2 231.667 873.866 231.933C876.933 232.067 880.533 233 881.6 233.933C883.066 235.133 883.866 235.267 884.266 234.2C885.333 230.867 888.133 228.467 891.333 228.2C898.266 227.667 900.666 228.333 900.666 230.867C900.666 232.2 901.6 234.067 902.666 235C903.733 235.933 904.666 237.533 904.666 238.733C904.666 239.8 905.6 241.933 906.933 243.267C908.133 244.6 908.666 246.067 908.133 246.733C907.6 247.267 899.2 247.667 889.6 247.8C876.266 247.933 870.666 248.467 866.533 250.2C859.066 253.267 842.933 252.733 842.266 249.267C841.866 247.4 842.8 247 846.933 247H852L847.733 244.333C841.733 240.733 836.666 242.467 836.666 248.333C836.666 253.533 833.2 260.333 830.666 260.333C828.4 260.333 828 254.333 829.866 249.4C830.533 247.533 830.4 241.667 829.6 234.467C828.133 223 828.133 222.6 831.733 215.8C835.866 207.933 836.133 206.2 833.333 203.533C832.266 202.333 831.333 200.333 831.333 198.867C831.333 194.6 836.133 195.933 840.533 201.267ZM788.266 221.933C786.8 233 784.133 243 782.8 242.6C780.266 241.8 780.266 228.467 782.933 222.2C786.133 214.467 789.2 214.333 788.266 221.933Z" fill="#006533"/>
<path d="M884.667 236.866C884.667 237.266 885.2 239 886 240.866C886.934 243.4 888.267 244.333 890.667 244.333C894.934 244.333 894.934 241.933 890.667 240.333C888.8 239.666 887.334 238.466 887.334 237.666C887.334 237 886.8 236.333 886 236.333C885.334 236.333 884.667 236.6 884.667 236.866Z" fill="#006533"/>
<path d="M798 123.8C796 129 796.4 131.667 799.867 135C804.8 139.533 807.334 137.8 807.334 129.933C807.334 124.2 806.934 123.267 804 121.933C799.467 119.8 799.467 119.8 798 123.8Z" fill="#006533"/>
<path d="M834.933 129.267C834.4 129.667 834 135.667 834 142.467C834 156.601 835.733 159.001 841.733 153.001C846.133 148.601 846.8 135.534 842.8 131.134C840.267 128.334 836.667 127.534 834.933 129.267Z" fill="#006533"/>
<path d="M811.333 139.8C808 140.733 805.2 141.533 805.067 141.533C804.8 141.667 805.467 143.933 806.533 146.6C807.6 149.4 808.8 153.4 809.333 155.667C810.267 159.933 812.267 163 814.133 163C814.8 163 815.067 161.533 814.533 159.8C814.133 157.8 815.067 154.333 817.333 149.933C819.6 145.533 820.533 142.067 820 140.333C819.6 138.867 818.8 137.8 818.267 137.8C817.733 137.933 814.667 138.733 811.333 139.8Z" fill="#006533"/>
<path d="M980.667 208.733C979.2 211.8 977.467 216.2 976.8 218.333C971.333 235.667 965.2 246.6 957.867 252.467C952.267 256.867 947.733 258.467 934.533 260.2C929.867 260.867 922 263.533 916.133 266.333C905.333 271.533 902.667 272.333 872.667 280.333C870.133 281 859.067 281.667 848 281.667C832.933 281.8 828.8 282.2 831.333 283.267C833.333 284.067 841.867 284.333 852.933 283.933C865.733 283.533 871.733 283.8 872.533 284.867C873.467 285.933 871.6 293 867.333 305.533C860.267 326.467 857.6 330.467 845.333 337.667C841.733 339.933 835.333 344.067 831.333 347C826 350.733 822.133 352.467 817.067 353.133C810.667 353.933 809.333 354.6 802.267 362.2C798 366.734 793.867 370.867 793.067 371.4C792.133 372.067 786.4 369 779.6 364.334C773.067 359.933 766.533 356.333 764.933 356.333C762.133 356.333 728 378.334 724.667 382.2C723.733 383.4 723.333 385.667 723.867 387.4C724.933 391.8 743.733 409.4 753.6 415.267C762.267 420.334 785.467 430.2 794.667 432.467C823.2 439.934 835.2 441.667 862.8 442.6C888 443.4 896.667 442.734 896.667 439.934C896.667 437.534 891.467 434.734 888.667 435.667C886.933 436.2 885.733 435.534 884.667 433.667C883.867 432.2 882 431 880.4 431C878.133 431 877.867 430.6 879.067 429.4C880 428.467 880.667 427.134 880.667 426.334C880.667 423.8 868.533 421.934 855.733 422.734C842.533 423.4 820.533 420.334 813.733 416.867C808.8 414.334 799.333 414.334 799.333 416.867C799.333 419.267 790.267 420.867 784.4 419.667C770.4 416.6 756.667 403.8 756.667 393.667C756.667 392.334 758.267 390.334 760.133 389C763.333 387 763.867 387 768.133 389C772.533 391.134 774.267 395.267 771.333 397C766.667 399.8 772.933 406.6 781.467 407.934C785.467 408.6 786 408.334 786 405.8C786 404.2 785.333 401.667 784.667 400.2C783.467 398.067 783.867 397.4 787.867 395.534C792.133 393.4 792.533 393.4 795.867 395.8C797.733 397.267 799.333 399.134 799.333 400.2C799.333 402.467 807.6 401.134 812.133 398.2C814.933 396.334 815.2 396.334 816.667 398.867C818.4 402.334 820.933 402.334 837.467 398.867C844.667 397.4 854.267 395.934 858.667 395.667C863.067 395.4 869.2 394.6 872.4 393.8C875.6 393 878.667 392.6 879.2 392.867C879.733 393.267 880.267 397.534 880.4 402.467C880.533 407.934 881.333 411.934 882.4 412.6C884.667 414.2 890.4 412.6 892.267 409.934C895.867 404.867 900.133 401.667 903.333 401.667C906.667 401.667 911.333 405.667 911.333 408.334C911.333 409.134 912.667 409.667 914.4 409.667C916.267 409.534 918.8 407.534 921.6 403.8C924.8 399.4 927.067 397.8 930.667 397.134C934.8 396.334 935.867 396.6 938.133 399.534C941.467 403.667 944.133 403.934 946 400.334C947.6 397.267 946.8 395 944.133 395C943.067 395 940.933 393.934 939.467 392.6L936.533 390.334L940.8 385.934C943.067 383.667 946.267 381.667 947.733 381.667C949.2 381.667 951.467 380.734 952.667 379.667C954.133 378.334 956.267 377.934 959.067 378.467C962.667 379.267 963.333 379.934 963.333 383.134C963.333 385.4 964.533 388.067 966 389.267C969.467 392.2 969.467 397.667 966 402.067C963.067 405.667 948.133 412.334 937.067 415C928.133 417 925.333 419.934 931.2 421.134C936 422.067 936.533 423.667 932.667 425.667C931.2 426.467 930 427.934 930 429C930 430.067 928.4 431.267 926.4 431.667C924.267 432.2 921.6 433 920.4 433.8C916.933 435.534 912.667 435.267 911.867 433.134C911.2 431.534 910.133 431.667 905.6 434.2C902.533 435.934 899.867 438.067 899.6 438.867C898.933 440.867 912.533 440.867 922.133 438.867C948.8 433.4 959.333 429.934 980 419.667C996.533 411.4 1009.2 401.8 1016 392.6C1020 387 1020.27 386.2 1018.4 384.067C1015.07 380.334 974.4 353.667 972.133 353.667C970.933 353.667 966.8 356.333 962.8 359.533C958.8 362.734 950.267 367.934 943.867 371C937.333 374.067 930 377.667 927.733 378.734C922.133 381.534 920 379.8 921.6 373.534C922.533 369.934 923.867 368.734 927.467 367.534C930.8 366.467 933.6 363.667 938 357.4C941.333 352.733 948 344.2 952.933 338.467L962 327.933L961.2 315L960.267 302.067L971.733 286.867C986.133 267.667 989.733 258.733 992.133 237.667C993.333 226.6 994.533 224.333 999.067 224.333C1003.73 224.333 1008.13 227.4 1010.67 232.333C1013.47 237.8 1013.33 258.6 1010.4 265.267C1002.13 284.333 992.267 302.067 982.8 315C979.867 319 975.333 325.267 972.8 329C970.267 332.6 967.867 335.933 967.333 336.333C965.733 337.533 961.467 345.533 962.133 346.2C962.4 346.467 965.467 346.467 968.933 346.067C974.8 345.4 975.6 344.867 978.8 339.133C980.8 335.8 984.667 330.333 987.333 327C999.867 311.8 1015.33 283.8 1021.87 264.6C1025.47 253.8 1025.87 228.067 1022.53 221.267C1018.4 213.133 1017.07 212.333 1007.07 212.333C998.267 212.333 997.6 212.067 993.467 207.667C987.333 201.267 984 201.533 980.667 208.733ZM926.667 307.933C928.533 312.2 930.533 315.933 931.067 316.333C931.6 316.733 934 319.933 936.4 323.4L940.933 329.8L933.733 341.4C927.467 351.533 925.6 353.533 919.333 356.6C915.333 358.733 911.467 360.333 910.533 360.333C905.467 360.333 898.267 370.6 896.8 380.2C895.6 387.267 891.867 388.6 871.6 388.467C862.267 388.467 849.6 387.4 843.333 386.334C837.067 385.267 829.733 384.334 827.067 384.334C823.733 384.334 821.067 383.4 819.333 381.667L816.667 379L823.867 371.667C827.867 367.667 832 364.334 833.067 364.334C834.267 364.334 836.533 362.6 838.267 360.467C843.867 353.533 861.867 345.533 876.267 343.667C882.533 342.867 883.333 342.333 884.667 338.467C885.467 336.067 887.733 332.733 889.733 331C910.933 313 916.533 307.4 916.667 304.867C916.667 303 919.467 300.333 921.467 300.333C922.4 300.333 924.667 303.8 926.667 307.933Z" fill="#006533"/>
<path d="M907.6 326.2C897.2 335.4 893.067 340.067 891.067 344.733C888.133 351.533 887.6 351.8 874.533 352.733C864.533 353.533 849.067 360.333 847.467 364.733C845.867 368.733 843.6 370.467 838.4 371.667C834 372.6 831.733 374.467 833.2 375.933C834.933 377.667 855.333 380.2 868.267 380.2C881.733 380.333 888.667 379 888.667 376.333C888.667 375.533 890.533 371 892.933 366.2C896.133 359.667 898.267 356.867 901.333 355.533C903.467 354.6 908.8 352.333 912.933 350.467C920.267 347.267 923.467 343.8 929.6 332.467C931.6 329 931.867 324.733 930.267 324.067C929.733 323.8 927.867 321.4 926.133 318.6C924.533 315.933 922.667 313.667 922.267 313.8C921.733 313.8 915.067 319.4 907.6 326.2ZM924.4 327.267C925.2 331.4 916.667 342.467 910.4 345.533C904.133 348.467 898.667 349.133 897.333 347C896.133 345 897.867 342.867 908.667 333.133C918.667 324.2 923.467 322.333 924.4 327.267ZM888.667 359.933C888.667 361.267 887.2 364.733 885.6 367.667C882.8 372.733 882.133 373 874.667 373.933C860.933 375.533 851.6 372.867 853.467 367.933C855.2 363.133 869.733 357.933 881.733 357.8C887.467 357.667 888.667 358.067 888.667 359.933Z" fill="#006533"/>
<path d="M1001.6 236.333C1001.2 237.4 999.467 244.866 997.6 252.733C993.467 270.066 991.867 273.4 978.8 291C970.267 302.333 968.667 305.4 968.667 309.666C968.667 315.666 970.667 317.666 973.467 314.2C980 305.8 989.867 289.533 996.4 276.333C1003.47 262.066 1004 260.2 1004.4 250.066C1004.67 244.066 1004.27 238.066 1003.6 236.733C1002.4 234.733 1002.13 234.733 1001.6 236.333Z" fill="#006533"/>
<path d="M816.667 291.667C816 293.534 814.267 297.4 812.8 300.467C809.733 306.6 807.067 315.267 802.533 333.267C800.933 340.067 799.067 346.2 798.667 347C798.267 347.667 795.2 348.334 792.133 348.334C783.867 348.334 778 349.667 778 351.667C778 353.4 785.067 359.267 789.067 360.734C790.8 361.4 793.733 359.534 799.867 353.8C807.067 347.134 809.067 345.934 814.933 345.134C820 344.467 823.867 342.734 829.6 338.6C833.867 335.534 840.8 330.734 844.933 327.934C851.733 323.267 856.667 316.734 856.667 312.467C856.667 311.534 857.867 307.267 859.333 302.867C860.8 298.467 861.733 294.334 861.333 293.534C860.8 292.867 853.2 292.334 844.267 292.334C832.667 292.2 827.067 291.667 824.667 290.334C819.867 287.534 818.133 287.934 816.667 291.667ZM841.067 298.6C854.267 299.4 854.533 299.934 850.667 311.134C848.267 317.934 844.4 322.334 838.533 325.134C836.133 326.334 832 329.134 829.2 331.4C817.867 340.867 809.733 342.734 808.933 336.067C808.533 332.334 813.867 313.134 818.4 302.6C820.933 296.467 821.333 296.2 825.2 296.867C827.467 297.4 834.533 298.067 841.067 298.6Z" fill="#006533"/>
<path d="M857.067 405.266C856.133 407.666 860.267 411.266 863.333 410.733C864.4 410.466 865.333 409.133 865.333 407.8C865.333 404.333 858.267 402.2 857.067 405.266Z" fill="#006533"/>
<path d="M360.667 27.0003C358.134 28.3336 351.867 33.6669 346.667 38.8669C337.067 48.6003 334.134 49.9336 329.467 46.3336C325.467 43.4003 321.067 43.8003 305.334 49.1336C276.934 58.4669 244 74.2003 232.534 83.8003C227.467 87.9336 226.667 88.3336 225.2 86.4669C222.267 82.4669 222.4 82.3336 204 104.067C199.6 109.267 195.2 113.667 194.4 113.667C193.467 113.667 192.667 113.4 192.667 113.134C192.667 113 191.067 108.6 189.2 103.534C187.334 98.4669 185.2 92.3336 184.534 89.9336C183.734 87.6669 182.667 85.6669 182.134 85.6669C181.467 85.6669 176.8 90.3336 171.6 95.9336C166.534 101.667 157.734 111.4 152.134 117.667C144.4 126.334 142 129.8 142.4 132.067C142.934 134.467 142.4 135 140.267 134.734C138.4 134.467 137.067 132.6 136 128.734C132.667 117.4 121.467 101.667 116.667 101.667C110.4 101.667 102.8 107.934 94.6669 119.534C91.7336 123.667 87.0669 130.2 84.2669 133.934C81.6002 137.8 79.3336 141.4 79.3336 142.067C79.3336 142.734 81.2002 146.334 83.4669 150.067C91.7336 163.4 99.6002 186.867 97.0669 190.334C94.8002 193.267 82.0002 196.6 70.0002 197.267C56.4002 198.067 48.8002 196.734 43.3336 192.334C40.2669 189.934 40.0002 189 40.1336 178.734C40.1336 170.467 40.9336 165.667 43.2002 159.667C52.5336 135.534 52.4002 136.067 49.2002 129.267C46.5336 123.667 41.0669 120.334 34.8002 120.334C30.9336 120.334 28.9336 121.534 23.6002 126.867C18.0002 132.467 15.3336 137 7.06691 153.934C6.53357 155.267 5.46691 158.467 4.80024 161.267C4.00024 164.067 2.80024 168.734 2.13357 171.667C0.40024 178.2 0.40024 203 2.00024 210.334C4.80024 222.734 6.00024 225.934 10.8002 233.267C17.3336 242.867 26.5336 249.934 37.8669 253.667C50.2669 257.934 73.2002 257.934 87.3336 253.667C100.534 249.667 110.667 244.467 118 237.934C123.467 233.134 129.2 223.4 139.067 201.934C140.4 199.134 142.267 197.4 144.534 197C146.4 196.6 152 195 157.067 193.4L166 190.6L176.534 193.534C199.734 199.8 292 202.334 313.334 197.267C328.267 193.667 334.8 188.734 336.534 179.8C337.734 173.934 340.667 174.6 345.334 181.934C347.467 185.267 352.134 190.067 355.6 192.334C361.6 196.467 362.667 196.734 377.2 197.4C394.267 198.067 396.267 199.267 391.334 205.934C389.867 207.934 388.667 209.934 388.667 210.334C388.667 210.734 386.534 214.2 384 218.067C381.467 221.8 379.334 225.667 379.334 226.6C379.334 228.6 392 237 404.4 243.267C407.6 244.867 408.134 248.334 405.734 252.334C403.6 255.534 406.267 258.734 415.067 263.267C418.534 265.134 427.2 270.067 434.4 274.334C441.467 278.467 448.134 281.667 449.2 281.267C450.134 280.867 455.067 274.334 460.134 266.734C465.067 259.267 469.467 252.734 469.734 252.334C470.534 251.267 476.267 255.667 487.2 265.534C504.134 281 502.667 280.6 509.334 272.867L515.067 266.334L518.4 269C520.267 270.467 524 273.4 526.667 275.534L531.6 279.534L537.067 273.534C540.134 270.334 545.067 264.6 547.867 261C550.8 257.267 553.734 253.667 554.534 253C557.2 250.6 564.667 240.6 564.667 239.534C564.667 238.867 561.867 235.934 558.4 233C554.934 230.067 549.067 225 545.334 221.667C530.534 208.734 526.667 205.667 524.534 205.667C523.334 205.667 520.8 208.067 518.8 211C514.4 217.8 511.6 217.8 504.4 211C497.734 204.867 495.067 204.467 492.267 208.867C491.067 210.6 488 214.334 485.467 217.134C481.2 221.667 480.667 221.934 480.667 219.4C480.667 217.8 481.467 216.334 482.4 215.934C485.334 214.867 481.734 211 474 206.867C465.867 202.6 463.334 199.4 466.8 198.067C468 197.667 479.6 197.934 492.534 198.734C505.6 199.534 523.067 199.8 532 199.267C549.2 198.334 558.8 198.334 603.334 199.134C628.134 199.534 633.067 199.267 639.734 197.134C649.867 194.067 656.267 187.667 657.467 179.267C658.534 171.8 657.067 143 655.2 135.667C654.4 132.734 653.334 128.2 652.667 125.667C650.934 118.2 646.8 108.2 642.267 100.334C634.267 86.4669 634.4 88.0669 640.4 80.2003C643.334 76.2003 647.067 71.6669 648.667 69.9336C650.267 68.3336 651.334 66.3336 651.067 65.5336C650.267 63.1336 613.334 32.3336 611.2 32.3336C610 32.3336 607.2 34.7336 604.8 37.6669C602.534 40.6003 599.867 43.0003 598.934 43.0003C598 43.0003 594.667 40.6003 591.334 37.6669C588 34.7336 584.4 32.3336 583.067 32.3336C581.867 32.3336 578.934 34.8669 576.534 37.9336C574 41.1336 571.734 43.9336 571.334 44.3336C569.067 46.3336 551.334 69.8003 551.334 70.7336C551.334 71.9336 584.8 102.734 588.4 104.867C589.6 105.534 591.867 103.8 595.467 99.8003C601.334 93.1336 604 92.2003 605.334 96.3336C606 98.2003 604.8 101.267 601.6 106.067C599.067 109.934 595.467 115.8 593.334 119.4L589.734 125.667L593.2 130.334C598.934 137.8 598.134 139 587.467 139C575.467 139 570.134 137.134 569.334 132.6C566.134 117.134 556.267 95.9336 548.534 88.2003C543.6 83.2669 542.534 82.7336 538.267 83.5336C530.534 84.7336 527.334 88.0669 515.467 107.534L504.4 125.8L507.867 130.734C513.067 138.467 512.667 139 501.467 139C486.934 139 485.734 138.334 482.8 127.534C477.2 106.867 464.134 85.5336 455.867 83.5336C450.4 82.2003 443.867 86.3336 438.134 95.0003C435.067 99.5336 432.667 103.4 432.667 103.667C432.667 103.934 430.934 106.867 428.667 110.067C426.534 113.4 424.667 116.6 424.667 117.4C424.667 118.067 423.734 119.4 422.667 120.334C419.867 122.734 420.134 128.867 423.334 131.667C424.8 133 426 135.267 426 136.734C426 139.267 425.334 139.267 409.067 138.467C389.467 137.4 387.734 137 386.8 133.934C386.4 132.734 385.467 110.867 384.667 85.4003C383.067 34.4669 382.667 31.6669 374.934 27.0003C369.734 23.8003 366.667 23.8003 360.667 27.0003ZM374.534 35.2669C375.867 37.5336 376.934 51.2669 378.667 90.3336C379.867 118.867 381.334 142.734 381.867 143.267C382.267 143.667 394.934 144.334 410 144.6C441.467 145.134 441.2 145.267 433.334 133.934C430.8 130.2 428.667 126.067 428.667 125C428.667 122.6 445.067 94.7336 447.6 92.7336C448.534 91.9336 450.667 90.8669 452.4 90.3336C459.467 88.2003 472.134 110.067 478.134 134.734C479.067 138.6 480.534 142.334 481.334 143C482.267 143.8 491.734 144.734 502.4 145.134C526 146.2 526.4 145.934 518.134 133.667C515.067 129.267 512.667 125.4 512.667 125C512.667 122.867 531.067 94.3336 533.867 92.2003C538.4 88.6003 540.4 89.0003 545.334 94.3336C551.867 101.534 558.134 115.4 562.667 132.334C564 137.134 565.2 141.667 565.334 142.467C565.6 143.534 571.734 144.334 582.267 145C610.667 146.6 612.4 145.667 603.334 133.534C599.734 128.734 598.267 125.534 598.8 123.934C599.2 122.6 602.8 116.2 606.8 109.934C610.8 103.667 614 97.5336 614 96.3336C614 93.8003 604 84.3336 601.334 84.3336C600.4 84.3336 598 86.6003 595.867 89.2669C593.867 92.0669 591.467 94.7336 590.8 95.2669C588.934 96.6003 584.267 93.4003 575.334 84.8669C571.334 81.0003 566.267 76.3336 564.267 74.6003C562.134 72.8669 560.667 70.4669 560.934 69.2669C561.067 68.0669 566.134 61.1336 571.867 53.8003C582.267 40.7336 582.534 40.6003 585.867 42.3336C587.734 43.2669 591.067 45.9336 593.2 48.2003C598.4 53.6669 601.067 53.4003 605.6 47.0003C607.6 44.0669 610.4 41.6669 611.867 41.6669C615.6 41.6669 640.667 63.9336 640.667 67.2669C640.667 68.7336 637.334 73.6669 633.334 78.3336C629.334 82.8669 626 87.5336 626 88.4669C626 89.5336 627.2 91.4003 628.667 92.7336C631.467 95.0003 640.667 108.734 640.667 110.467C640.667 111 642.267 115.4 644.134 120.067C648.267 130.6 652.667 154.6 652.667 167.267C652.667 179.667 649.334 186.2 641.2 189.8C635.734 192.2 632.534 192.467 596.934 192.2C575.867 192.067 556.667 191.934 554.4 191.934C552 191.934 534.267 191.934 515.067 191.934C463.334 191.934 442.934 192.467 440.8 193.667C438.934 194.6 444.8 198.334 465.6 209.267C474.534 213.934 474.667 216.067 466.667 227.8C460.8 236.334 459.334 240.334 462 240.334C462.8 240.334 464 241.8 464.8 243.534C466.134 246.334 465.2 248.2 457.334 260.2C452.4 267.534 447.734 273.667 446.934 273.667C446.134 273.667 438.267 269.4 429.6 264.2C414.667 255.267 413.734 254.467 414.667 251.134C416.267 244.467 416 242.467 413.334 241.134C411.867 240.334 405.734 236.734 399.6 233.267C390.8 228.067 388.667 226.067 388.667 223.667C388.667 221.934 389.2 220.2 389.867 219.667C390.667 219.267 394.267 213.8 398 207.667C405.867 194.6 407.467 193.934 417.734 200.334C421.334 202.467 425.2 204.334 426.4 204.334C428.534 204.334 434.8 195.4 433.6 194.067C433.2 193.667 418.534 192.867 401.067 192.2C383.6 191.534 367.2 190.334 364.667 189.4C350.134 184.734 345.467 173.534 344.134 139.667C343.6 127.934 342.667 112.867 342 106.334C341.334 99.6669 340.534 85.5336 340 74.8669C339.067 52.4669 337.467 56.4669 354.267 40.6003C361.734 33.6669 363.867 32.3336 367.867 32.3336C371.334 32.3336 373.067 33.1336 374.534 35.2669ZM328.667 53.9336C331.734 57.2669 332 60.8669 329.867 68.8669C325.2 86.6003 325.6 86.2003 310.667 91.1336C305.6 92.7336 300.8 94.6003 300 95.1336C299.334 95.5336 296.934 96.4669 294.667 96.8669C292.534 97.4003 289.467 98.7336 288 99.8003C285.334 101.8 285.467 101.934 289.334 104.734C308 118.334 324.8 133.4 329.867 141C333.067 145.934 333.334 147.267 333.067 159.934C332.8 181.8 328.934 187.4 311.867 191C300.8 193.267 272.934 194.467 253.334 193.4C243.067 192.867 227.2 192.334 218 192.334C200.267 192.067 185.067 189.934 171.734 185.4L163.467 182.734L159.067 185.4C156.667 186.867 151.067 188.734 146.667 189.667C136.134 191.8 134.4 192.867 133.334 197.667C132.534 201.534 126 216.334 123.334 220.334C122.534 221.4 121.467 223.534 120.8 225.134C118.267 231 106.534 239.667 95.2002 244.067C58.6669 258.2 26.0002 250.067 12.6669 223.4L8.00024 214.334V192.334C8.00024 174.067 8.40024 169.134 10.5336 163.667C16.8002 146.867 20.6669 139.534 26.8002 132.867C32.9336 126.2 36.8002 125.4 41.6002 129.934C45.6002 133.667 45.4669 138.2 40.9336 148.6C31.4669 169.8 30.1336 187.4 37.4669 195.134C44.0002 202.2 50.2669 204.334 64.6669 204.334C85.0669 204.334 103.6 197.934 104.4 190.467C105.2 184.334 99.4669 167 91.8669 152.2C89.3336 147.267 87.3336 142.867 87.3336 142.2C87.3336 141 97.4669 126.467 103.334 119C104.8 117.134 106 115.267 106 114.734C106 114.334 108.134 112.6 110.8 110.867L115.6 107.934L119.6 111.934C123.334 115.667 132.667 134.6 132.667 138.467C132.667 141.8 136.8 144.334 142.534 144.334C149.867 144.334 151.734 142.2 150.534 135.267C150 131.4 150.267 129.267 151.467 127.934C152.534 126.867 158.667 119.934 165.334 112.6C171.867 105.134 178 99.0003 178.8 99.0003C179.6 99.0003 181.467 101.534 182.8 104.6C184.934 109.4 185.334 113.134 185.2 127.267L184.934 144.2L189.067 145.534C191.2 146.334 194.534 147 196.134 147C200.267 147 200.4 142.6 196.534 134.334C193.334 127.534 193.734 125.4 199.734 118.867C202 116.2 207.334 110.067 211.334 105.267C215.334 100.334 219.6 96.3336 220.667 96.3336C221.734 96.3336 223.867 97.9336 225.334 99.9336C228.8 104.067 230.934 103.267 232.134 97.1336C232.534 94.6003 234.8 90.8669 237.067 88.6003C241.067 84.8669 262.267 72.3336 264.667 72.3336C265.334 72.3336 267.467 71.4003 269.6 70.3336C276.267 66.8669 294 59.6669 308.667 54.6003C321.067 50.3336 325.067 50.2003 328.667 53.9336ZM336.267 114.067C336.667 126.334 336.667 136.334 336 136.334C335.467 136.334 330.8 132.067 325.467 126.734C320.267 121.534 313.067 114.867 309.334 111.934C302 106.2 299.734 103.267 301.467 101.667C302.134 101.134 308 98.8669 314.534 96.4669C321.2 94.2003 327.734 91.5336 329.2 90.4669C334.534 86.8669 335.467 90.0669 336.267 114.067ZM506.134 221C510 224.334 513.6 227 514.134 227C514.534 227 516.667 224.6 518.667 221.667C524.134 213.667 526.134 213.667 535.6 221.934C540.134 225.8 544.934 229.934 546 231C547.2 232.067 549.867 234.334 551.734 235.934C553.734 237.667 555.334 239.8 555.334 240.734C555.334 242.734 534.934 267 531.867 268.734C530.4 269.534 528.667 269 526.267 266.734C514.4 255.8 514.534 255.8 510.134 262.467C504.934 270.067 502.667 270.6 496.934 265.534C478.934 249.8 475.334 246.334 474.667 244.2C473.6 240.867 494.267 215 498 215C498.667 215 502.267 217.667 506.134 221Z" fill="#006533"/>
<path d="M356.934 50.0672L348.667 58.4672L348.8 69.6672C348.8 75.9339 349.334 87.9339 350 96.3339C350.667 104.734 351.867 123.667 352.667 138.334C354 161.934 354.534 165.667 357.467 171.801C359.467 175.934 362 179.267 364.267 180.334C370.134 183.134 410.267 183.934 527.6 183.801C634.667 183.667 635.2 183.667 638.934 180.867C642.4 178.334 642.667 177.267 643.067 168.201C643.6 156.334 641.334 138.467 637.734 127.801C633.734 115.667 627.6 103.267 624.8 101.667C622.667 100.601 621.867 101.134 619.467 105.134C617.867 107.667 616.667 110.067 616.667 110.334C616.667 110.601 614.934 113.534 612.667 116.734C608 123.801 607.867 124.734 611.2 129.534C619.067 140.601 622.534 151.001 619.067 153.134C617.067 154.467 566.4 153.934 561.334 152.601C557.734 151.534 557.2 150.867 556.4 144.334C554.934 131.534 545.2 105.934 540.4 101.934C537.867 99.9339 536.4 101.534 528.667 114.734L522.934 124.467L527.067 131.001C529.334 134.601 532.4 140.467 534 143.934C538.534 154.201 537.6 154.467 498.667 153.801C486.934 153.667 476.4 153.267 475.334 152.867C474 152.601 472.4 148.334 470.8 141.401C465.734 119.934 457.334 101.134 453.067 101.934C451.067 102.334 447.6 106.867 445.067 112.334C444.667 113.401 442.8 116.201 441.067 118.467C437.2 123.667 437.2 125.001 441.467 130.601C446.667 137.534 451.734 149.667 450 151.667C447.867 154.334 433.734 154.867 404.667 153.667C380.4 152.601 377.334 152.201 374.934 149.934C372.134 147.134 371.867 142.601 368.934 66.4672C368.4 52.2005 367.467 42.3339 366.667 42.0672C365.867 41.8005 361.6 45.4005 356.934 50.0672Z" fill="#006533"/>
<path d="M577.734 60.2C574.934 63.8 572.667 67.6667 572.667 68.6C572.667 71.4 585.334 83 588.267 83C589.6 83 592.4 80.6 594.4 77.6667C596.534 74.6 599.2 72.3333 600.8 72.3333C602.134 72.3333 605.6 74.7333 608.534 77.6667C611.334 80.6 614.667 83 616 83C619.6 83 628.534 72.3333 628.667 67.9333C628.667 65.9333 628.267 64.3333 627.734 64.3333C627.067 64.3333 624.267 61.9333 621.334 59C618.4 56.2 615.067 53.8 613.734 53.6667C612.534 53.6667 609.6 56.0667 607.334 59C605.067 61.9333 602.134 64.3333 600.934 64.3333C599.6 64.3333 596 61.9333 592.8 59C589.467 56.0667 585.867 53.6667 584.8 53.6667C583.6 53.8 580.4 56.7333 577.734 60.2Z" fill="#006533"/>
<path d="M434.534 210.334C432.667 213.667 430.267 216.334 429.334 216.334C428.267 216.334 423.867 214.2 419.467 211.667C415.2 209.134 410.934 207 410.267 207C408.4 207 400.667 218.6 400.667 221.4C400.667 224.2 418.667 235.134 421.334 234.2C422.4 233.8 423.6 232.334 424 231.134C424.4 229.8 426.134 227.4 427.867 225.8L430.934 222.867L436.934 226.067C440.267 227.8 444.4 230.2 446.134 231.4C450.8 234.734 452.134 234.2 456.267 227.934C462.934 218.067 463.067 218.467 450.534 211C444.267 207.4 438.8 204.334 438.534 204.334C438.267 204.334 436.534 207 434.534 210.334Z" fill="#006533"/>
<path d="M428.8 242.6L424.267 250.066L428.133 253.266C430.267 254.866 432.533 256.333 433.067 256.333C433.733 256.333 435.733 257.533 437.6 259C443.067 263.266 446.133 262.333 450.4 255.533C452.4 252.2 454 248.6 454 247.666C454 245.933 437.333 235 434.533 235C433.867 235 431.2 238.466 428.8 242.6Z" fill="#006533"/>
<path d="M306.667 64.4662C283.067 73.3996 272.934 77.7996 259.334 84.7329C244.934 92.1996 240.934 95.5329 239.867 101C238.667 107.666 239.867 111 245.6 116.733C249.867 121.266 251.2 121.8 255.067 121.133C258.8 120.6 260.8 121.4 267.6 126.066C286.134 139 299.867 151.266 298.934 154.2C298.534 155.266 290.4 155.666 271.2 155.666C244.934 155.666 231.067 154.733 227.734 152.6C226.667 151.933 225.467 145.133 224.667 135C223.867 125.933 222.267 116.466 221.2 113.8C219.2 109 219.2 109 216.934 111.8C215.734 113.4 212.4 117.4 209.734 120.6C204.267 127.133 203.734 129.266 206.534 134.733C207.467 136.733 208.667 141.133 209.067 144.733C210.667 156.066 204 158.866 186.8 154.2C182.267 153 177.334 150.6 175.6 149.133C172.8 146.333 172.667 145.933 174.534 141.533C176.934 135.666 178.534 119 176.8 116.466C175.867 114.866 174.134 116.2 168.4 122.333C160.4 131.133 159.334 133 160.267 137.8C161.2 142.733 157.467 150.733 153.734 151.666C152 152.066 145.6 152.333 139.334 152.066L128 151.666L124.534 141.266C120.134 128.2 116.4 120.333 114.534 120.333C112.667 120.333 110.534 122.733 103.067 133.8L97.0671 142.466L100.8 150.466C108 165.133 112.667 181.4 112.667 191.133V200.066L104.4 204.066C90.5338 210.733 81.6005 212.733 65.2005 212.866C53.4671 212.866 49.3338 212.466 44.5338 210.333C29.4671 203.666 24.1338 195.933 24.1338 180.333C24.1338 170.466 25.8671 163.533 32.5338 145.666C36.0005 136.733 36.0005 137.133 32.5338 139.533C29.0671 141.933 22.6671 154.066 18.9338 165.666C16.6671 172.866 16.1338 177.533 16.1338 192.6C16.2671 210.333 16.4005 211.133 20.4005 219.266C25.0671 228.866 27.8671 231.8 37.3338 237.133C43.7338 240.866 44.6671 241 62.0005 240.866C78.9338 240.866 80.6671 240.6 90.4005 236.6C105.6 230.6 110.934 225.666 118.4 210.733C121.867 203.933 124.667 197.666 124.667 196.733C124.667 195.933 125.734 192.6 127.2 189.4L129.734 183.533L140.8 181.8C151.867 180.066 155.467 178.6 159.867 174.333C161.867 172.333 162.8 172.466 173.067 176.066C188.667 181.8 198 182.866 239.334 184.333C289.867 185.933 315.067 183.8 321.6 177.4C324 174.866 325.734 155.533 324.134 149C322.534 142.466 294.267 117.666 274.4 105.133C267.734 101.133 267.067 98.1996 272.4 96.3329C274.4 95.5329 277.2 94.3329 278.667 93.6662C282.934 91.6662 302.534 84.3329 303.734 84.3329C304.4 84.3329 307.734 83.1329 311.334 81.5329C318.4 78.4662 320.534 75.2662 321.067 66.3329C321.467 59.5329 320.134 59.3996 306.667 64.4662Z" fill="#006533"/>
<path d="M233.067 130.6C233.6 138.6 234.534 143.934 235.6 144.467C237.334 145.534 246 146.467 266.4 147.667C282.267 148.6 282.8 147.534 270.4 138.6C261.734 132.467 257.6 131 256 133.667C254.534 136.067 252.8 135.134 243.467 126.334C238.534 121.534 233.867 117.667 233.334 117.667C232.667 117.667 232.667 123.534 233.067 130.6ZM244 139C243.334 140.067 242.534 140.067 241.734 139.267C240.934 138.467 240.8 137.134 241.334 136.334C242 135.267 242.8 135.267 243.6 136.067C244.4 136.867 244.534 138.2 244 139Z" fill="#006533"/>
<path d="M490.801 234.867L484.801 242.6L491.867 249.533C495.867 253.267 500.001 256.333 501.334 256.333C502.534 256.333 505.734 253.933 508.267 251C510.934 248.067 513.734 245.667 514.534 245.667C515.334 245.667 518.401 247.8 521.334 250.467C530.267 258.467 530.401 258.467 537.201 250.467C540.534 246.467 543.334 242.467 543.334 241.4C543.334 239.533 529.334 227 527.067 227C525.734 227 519.334 233.533 519.334 234.867C519.334 235.267 518.134 236.467 516.801 237.267C514.534 238.733 513.201 238.2 507.201 233C503.334 229.667 499.467 227 498.534 227C497.601 227 494.134 230.467 490.801 234.867Z" fill="#006533"/>
<path d="M344.267 326.2C342.667 327.933 340.667 330.2 340 331.267C339.2 332.2 335.467 337 331.6 341.8C327.867 346.733 324.667 351.667 324.667 352.867C324.667 354.733 327.734 355 351.867 355C375.467 355 379.2 354.733 379.867 352.867C381.334 349 380.8 326.333 379.067 324.6C378 323.533 372.267 323 362.4 323C348.134 323 347.067 323.133 344.267 326.2Z" fill="#006533"/>
<path d="M7.33333 333.933C5.73333 339.266 3.86667 345 3.2 346.733C2.53333 348.466 2 351 2 352.466C2 355 3.06667 355 52.8 354.733L103.733 354.333L107.6 341.666C109.733 334.733 111.6 328.066 111.733 327C112 325.266 105.467 325 61.2 324.6L10.2667 324.333L7.33333 333.933Z" fill="#006533"/>
<path d="M123.601 325.933C122.667 326.867 122.001 328.333 122.001 329.267C122.001 330.2 120.801 334.467 119.467 338.6C118.001 342.867 116.534 348.333 116.001 350.6L115.067 355H131.067H147.067L149.867 345.267C151.467 340.067 153.334 334.333 154.001 332.6C154.801 330.867 155.334 328.333 155.334 327C155.334 324.467 154.267 324.333 140.267 324.333C130.267 324.333 124.667 324.867 123.601 325.933Z" fill="#006533"/>
<path d="M164.801 336.867C160.534 349.934 159.734 354.467 162.001 355.267C162.667 355.4 169.467 355.534 177.067 355.267C190.134 354.867 191.067 354.6 192.401 351.8C193.201 350.067 195.201 348.467 196.934 348.2C198.667 347.8 213.334 347.8 229.734 348.067L259.467 348.6L260.667 351.8C261.867 354.867 262.267 355 277.201 355C294.667 355 294.134 355.4 296.401 342.867C298.267 333.267 297.334 330.334 292.001 327C287.867 324.467 285.467 324.334 228.267 324.334H168.934L164.801 336.867Z" fill="#006533"/>
<path d="M433.467 325.4C432.8 326.466 439.734 349.533 441.867 353.666C442.8 355.266 447.334 355.666 467.734 356.066L492.4 356.333L506.267 342.2C513.734 334.466 520 327.4 520 326.6C520 325.533 515.334 324.866 505.2 324.6L490.534 324.2L482.934 332.333C478.8 336.733 474.534 340.333 473.6 340.333C471.467 340.333 468.667 334.733 468.667 330.6C468.667 325.133 466.4 324.333 449.867 324.333C441.2 324.333 433.867 324.866 433.467 325.4Z" fill="#006533"/>
<path d="M518.533 345.133C507.6 356.466 498.4 366.866 498.133 367.933C497.733 369.933 498.533 373.266 502.533 386.333C504.267 391.8 507.467 402.6 510.667 414.333C515.067 429.933 515.467 431 518.4 431.666C520 432.066 527.6 432.333 535.333 432.066L549.333 431.666L548.933 427C548.8 424.466 547.733 419.266 546.667 415.666C545.467 411.933 543.6 405.666 542.533 401.666C541.333 397.666 539.6 391.933 538.667 389C533.733 373.133 532.267 366.6 533.467 365C535.2 362.733 554.133 340.733 561.333 332.866C564.533 329.266 566.8 325.933 566.533 325.4C566.133 324.733 559.6 324.333 552 324.333H538.267L518.533 345.133Z" fill="#006533"/>
<path d="M564.134 343.533C540.934 367.8 541.334 367.266 543.067 373.533C543.867 376.2 545.867 382.866 547.467 388.333C551.201 401.533 552.667 406.6 554.667 413C555.601 415.933 556.801 420.333 557.201 422.866C558.801 431.533 560.534 432.333 577.601 432.333C589.467 432.333 592.934 431.933 593.467 430.466C594.134 428.6 592.801 422.866 588.134 407C586.934 403 585.067 396.6 584.134 393C583.067 389.266 581.334 383 580.001 379C578.801 375 577.601 370.466 577.201 369C576.667 367 580.934 361.266 593.734 346.333C603.201 335.266 610.801 325.933 610.401 325.266C610.134 324.733 603.601 324.333 596.134 324.333H582.401L564.134 343.533Z" fill="#006533"/>
<path d="M623.734 328.066C620.134 331.666 612.667 339.666 594.801 358.733C586.267 367.933 586.267 367.666 590.667 382.333C595.067 397.133 599.734 413.266 600.801 417.666C601.334 420.2 602.801 424.6 604.001 427.4L606.001 432.333H622.801H639.601L638.934 428.6C638.667 426.6 637.334 421.4 636.001 417C632.001 402.6 630.001 395.8 627.867 389C626.801 385.266 625.067 378.733 623.867 374.466C621.601 365.266 621.601 365.266 632.934 352.866C646.934 337.533 655.334 327.4 655.334 325.8C655.334 324.866 650.934 324.333 641.334 324.333C627.867 324.333 627.334 324.466 623.734 328.066Z" fill="#006533"/>
<path d="M308.267 373.4C307.067 373.667 305.867 374.867 305.467 376.067C305.067 377.267 303.333 379.8 301.6 381.667C299.867 383.533 296.133 388.333 293.333 392.333C290.533 396.333 283.067 406.467 276.8 414.733C268.267 426.333 266 430.2 267.333 431C270 432.733 294.933 432.2 297.333 430.467C298.533 429.667 304.133 422.067 309.733 413.667L320.133 398.333H336H352L352.4 414.333C352.667 425 353.333 430.6 354.4 431.267C356.667 432.733 373.2 432.6 377.2 431L380.667 429.667V403.933C380.667 385.4 380.267 377.533 379.067 376.067C377.6 374.067 372.933 373.8 343.867 373.4C325.467 373.133 309.467 373.133 308.267 373.4Z" fill="#006533"/>
<path d="M28.9336 375.4C27.4669 377 21.3336 395.133 14.0003 418.6C12.4003 423.8 11.4669 428.733 12.0003 429.533C12.5336 430.467 18.2669 431 26.5336 431H40.4003L42.5336 426.467C43.7336 423.933 44.6669 421.4 44.6669 420.733C44.6669 419.533 49.7336 403.133 54.8003 388.067C55.8669 384.733 56.6669 380.2 56.4003 378.067L56.0003 374.333L43.2003 373.933C33.7336 373.667 30.0003 374.067 28.9336 375.4Z" fill="#006533"/>
<path d="M108.133 376.6C107.2 378.334 104.933 384.467 103.333 390.334C101.733 396.2 99.5998 403.4 98.6665 406.334C93.0665 423.934 92.2665 426.867 93.0665 428.867C93.8665 430.734 95.9998 431 108.933 430.734L123.866 430.334L128.266 415.667C130.666 407.534 133.466 398.334 134.533 395C141.466 372.334 142.133 373.667 124.133 373.667C110.933 373.667 110 373.8 108.133 376.6Z" fill="#006533"/>
<path d="M155.067 375.133C153.734 375.8 152.667 377.267 152.667 378.333C152.667 379.4 151.867 382.2 150.801 384.6C149.734 387 147.867 392.6 146.534 397C145.201 401.4 142.401 410.333 140.267 416.733C137.867 424.2 136.801 429 137.601 429.8C138.267 430.467 145.467 430.867 153.334 430.733L167.867 430.333L170.401 422.333C171.867 417.933 173.867 412.2 174.667 409.667C175.601 407.133 176.934 403.133 177.467 401L178.667 397L224.001 396.333C269.334 395.667 269.334 395.667 275.334 392.333C279.067 390.2 282.401 387 284.401 383.4C290.001 373.267 292.267 373.667 220.267 373.667C180.001 373.667 156.534 374.2 155.067 375.133Z" fill="#006533"/>
<path d="M435.2 377.933C433.467 379.4 421.467 393.133 413.2 403C411.6 404.866 405.867 411.533 400.133 417.933C394.533 424.333 390 430.2 390 430.866C390 431.8 395.867 432.333 406.533 432.333H423.067L429.467 425.133C433.067 421.266 439.6 413.8 444 408.466C452.133 398.733 455.867 396.333 458.4 398.866C459.867 400.333 462.4 408.466 464.667 418.733C467.467 431.8 467.333 431.666 485.2 432.066C494 432.2 501.733 431.8 502.4 431.133C503.467 430.066 501.6 422.6 494.8 401C493.867 398.066 491.733 391.266 490 385.933L487.067 376.333H462.133C444.133 376.333 436.667 376.733 435.2 377.933Z" fill="#006533"/>
</svg>
