<svg width="800" height="800" viewBox="0 0 800 800" fill="none" xmlns="http://www.w3.org/2000/svg">
<path opacity="0.4" d="M733.333 400V566.666C733.333 666.666 666.666 733.333 566.666 733.333H233.333C133.333 733.333 66.6665 666.666 66.6665 566.666V400C66.6665 309.333 121.333 246 206.333 235.333C215 234 224 233.333 233.333 233.333H566.666C575.333 233.333 583.666 233.666 591.666 234.999C677.666 244.999 733.333 308.666 733.333 400Z" fill="#292D32"/>
<path d="M591.65 235C583.65 233.667 575.317 233.334 566.65 233.334H233.315C223.982 233.334 214.982 234.001 206.315 235.334C210.982 226.001 217.648 217.334 225.648 209.334L333.983 100.667C379.65 55.3337 453.65 55.3337 499.317 100.667L557.65 159.668C578.983 180.668 590.317 207.334 591.65 235Z" fill="#292D32"/>
<path d="M733.333 416.667H633.333C596.667 416.667 566.667 446.667 566.667 483.334C566.667 520 596.667 550 633.333 550H733.333" fill="#292D32"/>
</svg>
